<?xml version="1.0" encoding="utf-8"?>
<!-- Generator: Adobe Illustrator 22.0.1, SVG Export Plug-In . SVG Version: 6.00 Build 0)  -->
<svg version="1.1" id="Layer_1" xmlns="http://www.w3.org/2000/svg" xmlns:xlink="http://www.w3.org/1999/xlink" x="0px" y="0px"
	 viewBox="0 0 1920 1080" style="enable-background:new 0 0 1920 1080;" xml:space="preserve">
<style type="text/css">
	.st0{fill:#FEFEFE;}
	.st1{fill:#FDFDFD;}
	.st2{fill:#FEC5C4;}
	.st3{fill:#E5E6E7;}
	.st4{fill:#5F3713;}
	.st5{fill:#FCCFAE;}
	.st6{fill:#2E1406;}
	.st7{fill:#FCE8E7;}
	.st8{fill:#FC335C;}
	.st9{fill:#CEAB86;}
	.st10{fill:#AA7B43;}
	.st11{fill:#D19176;}
	.st12{fill:#E8AD83;}
	.st13{fill:#FC9F9C;}
	.st14{fill:#FCFCFB;}
	.st15{fill:#FDC4C3;}
</style>
<g>
	<g>
		<path class="st0" d="M440,512.9c0-164.1,0-328.1-0.2-492.2c0-5.8,1.1-6.9,6.9-6.9c346,0.2,692.1,0.2,1038.1,0
			c5.7,0,6.9,1.1,6.9,6.9c-0.2,346-0.2,692.1,0,1038.1c0,5.7-1.1,6.9-6.9,6.9c-346-0.2-692.1-0.2-1038.1,0c-5.7,0-6.9-1.1-6.9-6.9
			C440,880.2,440,701.6,440,523c1.1,0,2.3,0.2,3.3,0c3.4-0.6,9.2,2,9.3-3.8c0.1-4.8-4.7-6.3-9.3-6.2
			C442.2,512.9,441.1,512.9,440,512.9z M967.6,224.1L967.6,224.1c1.2,0.2,1.8-0.3,1.8-1.6l0,0c1.2,0.1,1.8-0.6,1.7-1.8l-0.1,0.1
			c3-0.7,4.1-2.8,4.4-5.6l0.1-0.2c1.6-0.5,2.1-1.6,1.7-3.1c0.4-0.8,0.8-1.7,1.2-2.5c1.5-1.1,1.7-2.6,1.3-4.2c0.3-1,0.6-2.1,1-3.1
			c0.1-0.6,0.1-1.2,0.2-1.8c1.7-10.3,0-20.3-3.6-30c-0.1-7.2-4.2-5-8.5-4c-12.8,3-26,6.8-38.5,0.6c-9-4.5-17.9-9.2-27.3-12.8
			c-35.7-13.6-69.1-11-98.8,15c-1.9,1.7-3.9,2.8-6.5,3.4c-18.2,4.3-29.1,15.9-33,33.9c-5.2,23.4-2.9,46.6,2.9,69.6
			c0,0,0.2-0.2,0.2-0.2c0,0.6,0,1.2,0,1.8c0.1,1.6,0.2,3.2,0.3,4.8c-0.3,0.5-0.6,1-1,1.4c-4.5,6.9-3,13.3,1.9,19.3
			c1.8,6.2,5.6,9.5,12.3,8.9c4.2,6.2,4.3,14.3,9.7,19.9c9.3,18,24,28.3,44,31.2c1.6,0.1,3.3,0.3,4.9,0.4c0,0-0.2,0.1-0.2,0.1
			c0.2,6.1,0.4,12.1,0.6,18.2c-0.1,0.6-0.2,1.2-0.3,1.8c-3.5-0.5-5.8,1.4-7.6,4.1c-15.5,9.6-32.6,16.8-46.5,29.1
			c-2.2,2-5.4,3.2-5.1,7c-0.2,0.3-0.2,0.6,0,0.9c-0.4,0.8-0.8,1.6-1.3,2.5c-5.7,19-11.4,38.1-17.1,57.1c-7.8-0.7-15.4-1.1-12.7,10.8
			c0.5,2.3-0.2,5-0.5,7.5c-0.5,3.8-2.3,6.9-5.9,8.4c-5.5,2.3-5.8-8.5-10.5-5c-3.4,2.6-4.3,7.8-10.6,7.1c-7.2-0.8-14.5-0.3-21.8-0.2
			c-4.6,0.1-6.7-2-6.6-6.6c0.1-4.8,0.1-9.5-0.2-14.3c-0.2-2.7-1.8-4.7-4.5-5.4c-1.9-0.5-3.8,1.1-3.9,2.4c-0.6,6.1-5.3,10-7.7,15.1
			c-1.5,3.2,0.4,8.6-5.6,8.5c-5.4,0-4.3-4.6-5.3-7.9c-1.4-5.1-5.6-5.5-10.1-5.3c-4.9,0.2-10.4-1.2-12.8,5.1c-3.3,8.8-7,10.6-15.6,7
			c-2.2-0.9-3.7-1.7-6-0.2c-4.5,3.1-9.8,0.9-14.7,1.6c-7.7,1.1-7-5-8.5-9.5c-0.9-2.4-3.1-5-6.5-2.3c-2.9,2.3-2.9,5.3-0.4,7.1
			c4.5,3.1,4.7,7.2,4.5,11.7c-0.1,3.4-1,6.2-5.1,6.2c-3.5,0-4.9-2.1-5-5.4c-0.2-6.2-3.9-8.1-9.5-7.9c-7,0.1-14,0-21,0
			c-12.5,0-13.7,1.3-13.3,14.4c2.6,0.1,3.6-2.5,5.5-3.5c5.3-2.6,14.1-0.9,14.4,3.2c0.5,8.8,5.7,9.7,12.6,9.4c4.7-0.2,9.5-0.2,14.3,0
			c6.2,0.3,10.4-1.4,10.6-8.6c0.1-4.6,3.7-5.1,7.2-4.9c3.4,0.2,8.3-1.3,9,3.7c0.9,6.1,2.7,10.2,9.7,9.7c5.1-0.3,10.3,0.9,14.7-3.9
			c4.5-4.9,10.6-4.3,15.7-0.3c2.2,1.7,2.9,6.2,6.7,5c3.7-1.2,4.2-4.8,4.1-8.4c-0.1-2.4,0.6-4.6,3.1-5.4c2.6-0.9,4.8-0.1,6.6,2.2
			c3.9,4.9,9.7,4.9,14.7,3.7c3.3-0.8,4.5-0.2,6,2.2c1.6,2.7,3.7,5.3,7.2,4.6c3.7-0.8,4.3-4.1,4.4-7.2c0.1-4.2,2.2-5.9,6.3-6
			c4.2-0.1,7,1.1,7.2,6c0.2,5.7,3.7,7.6,9,7.5c7-0.1,13.9-0.3,20.7,1.7c0.3,2.2,0.6,4.5,0.9,6.7c-3.5,0.1-4.1,2.5-3.7,5.2
			c1.3,8.3,2,16.1-9.3,18.1c-2.3,0.4-3.6,2.8-3.6,5.2c0,2.9,2.5,3,4.8,3.5c5.1,1.1,11.5,0.8,10.5,9.3c-0.2,1.8,2.8,2.1,4.8,2.5
			c5.7,1.2,8.8,12.2,4.9,16.7c-1.5,1.7-3.4,2.2-5.2,0.8c-7.1-5.5-12,3.4-18.5,2.7c-0.4-0.1-1.7,2.4-1.6,3.6c0.4,4.7,0.8,9.4,2,13.9
			c0.9,3.1,3.8,4.9,7.3,4.1c3.3-0.7,3.2-2.8,2.6-5.8c-1.2-6.3,3.7-5.6,7.5-5.7c3.9,0,7.2,0.4,6.5,6c-0.7,5.4,0.3,10.3,6.3,12.6
			c-0.3,1.1-0.6,2.1-0.8,3.2c-4.6,0.5-3.4,4.7-4.2,7.2c-2.4,8.4-0.7,10.3,8,9.7c16.4-1,18.9,2.1,20,18.2c1.2,17.5-5,35.4,2.8,52.6
			c0.9,1.9,0.2,5.5-3.2,3.2c-10.4-6.9-21.8-2.5-32.7-3.5c-4.2-0.4-7.3,2.3-7.2,6.5c0.1,5.3-2.4,11.4,3,15.7c1.6,1.3,3.7,0.9,4.6-0.4
			c5.2-7.7,16.3-3.5,21.5-11.1c0.4-0.6,2.4-1,3.1-0.6c6.1,3.4,13.6,0.7,19.5,4.9c0.9,10,1.8,19.9,2.6,29.9c-3.2,3.2-4.5,6.2,0.7,8.8
			c0.3,2.7,0.5,5.4,0.8,8.1c-3.3,3.8-4.5,7.4,0.9,10.4c0.2,2.2,0.3,4.5,0.5,6.7c-3.3,0.6-6.5,1.3-9.8,1.7c-5.1,0.6-7.3,3.4-7.3,8.4
			c0,5,2.1,8,7.3,8.4c2.7,0.2,6.2-0.6,5.9,3.8c-0.3,3.9-2.9,6.1-6.7,6.2c-5.3,0.2-10.6-0.1-15.9,0.1c-5.4,0.2-7.6-2.1-7.4-7.5
			c0.2-8.7,0-17.4,0.1-26c0-4.1-1.6-8.6-5.5-7.9c-8.7,1.5-17.3,0.4-25.9,1.3c-2.6,0.3-4.7,2.2-5.2,4.8c-0.6,3.3,1.3,6.2,3.3,8.3
			c2.7,2.9,3.3-1.5,5-2.3c3-1.5,6-0.7,9.1-1c6.1-0.6,9.4,1.1,9.3,8.2c0,6.6-2.4,9.3-8.9,8.6c-4-0.5-8.5,1.4-11.5-3.1
			c-1.4-2.1-2.7-0.7-3.8,0.8c-2.2,2.8-5,5.2-4.6,9.5c0.4,4-1.6,6.3-5.8,6.3c-4,0.1-7.3-0.5-7.5-5.6c-0.2-3.7-0.6-7.9-5.7-7.6
			c-4.2,0.3-6,3.5-6.1,7.7c-0.1,5.8-4.4,5.5-8.4,5.5c-4.1,0-8.2,0.2-8.3-5.6c0-3.8-1.7-7-5.4-7.5c-5.7-0.7-6.5-3.9-6.5-8.7
			c0-4.6,0.5-8.3,6.4-8.8c2.5-0.2,5.1-2.1,4.8-4.9c-0.3-3.1-2.9-4.6-6-4.8c-3.1-0.2-7.2-0.5-8.2,2.7c-1.8,5.9-7,10.4-7.9,15.8
			c-1.2,7.9-5,8.8-11.3,8.4c-4.2-0.3-8.4-0.1-12.6,0c-4.3,0.1-7-1.2-7.1-6c-0.2-5.7-3.8-7.5-9.1-7.4c-5.8,0.1-10.6,1.3-16.1,4.5
			c-5.5,3.2-11.3,7.4-17.9,8.9c-3.8,0.9-14.5,16.6-13.6,20.3c0.5,1.8,1.8,3.4,3.1,4.8c1.1,1.2,2.7,2.1,2.9,3.9
			c0.5,3.5,1.4,7.4,5.5,7.2c3.9-0.2,4.8-4,4.9-7.6c0.3-5.3,4.2-5.1,8-5c3.5,0.1,8.2-0.8,8.5,4.4c0.4,8.3,5.3,9.4,11.9,9.1
			c5.6-0.2,11.2-0.1,16.8,0c4.9,0,8.3-2,8.4-7.2c0.2-6.2,4.1-6.2,8.6-6.3c4.7-0.1,8.3,0.6,8.4,6.6c0,3.6,3.2,8.1,5.9,5.8
			c5.3-4.4,12.2-4.8,17.3-8.9c3.7-2.9,24.1-5.1,28-2.8c2.3,1.3,2.4,3.5,2.6,5.8c0.3,3.9,2.4,6.7,6.2,6.7c6.4,0.1,13,2,18.5-4.5
			c4.6-5.5,14.1-4,15.1,1.8c0.9,4.7,2.4,9.8,0.4,14.7c-1.7,0.5-3.4,1.1-5,1.6c-0.2-2.1-0.8-4.1-3-4.3c-2.9-0.2-3.5,2.1-3.6,4.5
			c-1.2,0.5-2.4,1.2-3.7,1.6c-17.4,5.8-35.4,9.9-51.3,19.8c-15.3,9.5-16.8,22.7-2.2,32.5c8,5.4,17,9.9,26.2,12.9
			c32,10.5,65.1,16.2,98.5,20.9c36.4,5.1,73,8.5,109.6,9.2c62.2,1.2,124.4,2,186.5-4.2c33.8-3.4,67.4-7.2,100.6-14.1
			c24.2-5,48.6-10.5,69.5-25.1c13.3-9.3,13.8-22.2-0.2-30.8c-20.4-12.5-42.9-19.4-66.6-22.8c-3.9-3.9-7.7-7.8-11.6-11.7
			c-1-1-1.8-2.3-3.6-1.7l0.1,0.1c0.9-3.7-2.2-5.5-3.9-7.9c-3-4.3-5.8-8.5-6.7-14.1c-4-23.6-8.1-47.2-13.1-70.6
			c-10.4-49.1-23.3-97.6-42-144.3c-3.5-8.6-4.9-18.1-11.6-25.2l0,0c0.5-2.5-0.6-4.6-1.7-6.6c-2.5-9.3-8.4-16.9-13-25.2
			c-1.6-6.7-6.1-11.6-10.1-16.9c-0.2-3.2-1.9-5.8-3.9-8c-5.5-6.3-2.4-9.6,3.8-12.1c3.7-1.5,8.1-1.8,10-6.2c1.2-1.7,2.5-3.5,3.7-5.2
			c1.7,0.6,3-0.2,3.2-1.6c1.2-10,0.8-19.9-3-29.3c-0.2-1.8-0.3-3.6-0.4-5.4c-0.9-9.4-1.2-18.8,0.7-28.1c0.1-1,0.3-2.1,0.4-3.1
			c3-8.2,3.9-16.7,3.1-25.4c-0.1-8.8-0.1-17.6-0.2-26.4c0.9-11.6-1.9-22.7-4.8-33.6c-2.4-8.9-6.8-17.5,2.5-25.1
			c4.5-4.2,5.7-10,4.5-15.4c-1.5-6.7,1.3-11.6,3.9-17.1c8.1-17.1,7.2-33.4-5.6-48.1c-5.5-6.3-13.3-10.5-17.5-18.1
			c-0.2-0.3-0.5-0.7-0.6-1c0-2.5-0.6-4.6-3.6-4.8l0,0c0.1-2.3-1-3.4-3.3-3.5l0,0c-1-4.3-4.1-6.2-8.2-6.9c-0.7-0.5-1.3-0.9-2-1.4
			c-0.2-1.1-0.9-1.6-2-1.4c-0.4-0.1-0.8-0.4-1.1-0.6c-0.9-2.5-2.9-3.1-5.3-3c-1.7-0.5-3.4-1.1-5.1-1.6l0,0
			c-8.8-5.5-18.4-6.4-28.4-4.8c-2.2,0.1-4.4,0.1-6.7,0.2c-11.6,0.6-22.8,3.1-33.3,8.1c-0.6,0.2-1.2,0.3-1.9,0.5
			c-2.4,0.3-4.7,1-6.4,2.9c-0.7,0.3-1.3,0.6-2,1c-4.2,0.9-7.7,3.1-10.9,5.9c-0.5-0.1-0.8,0.1-0.9,0.6c-0.4,0.3-0.8,0.6-1.3,1
			l-0.4,0.2c-1.9,0.1-3.1,1.1-3.8,2.8l0.1-0.1c-3.2,1.2-5.5,3.4-7.2,6.3l0.6,0.6l-0.6-0.5c-1.2,0.4-2.1,1.1-2.3,2.5L966,243
			c-0.4,0.4-0.7,0.8-1.1,1.2c-0.3,0.5-0.6,0.9-0.9,1.4c-0.6,0.6-1.2,1.2-1.8,1.8c-3.5-8.1-4.2-15.6,3.6-21.8l0,0
			C966.9,225.8,967.5,225.3,967.6,224.1z M559.8,720.7c1.7-6.3-2.4-6-6.1-6.3c-6.4-0.4-13.9,2.5-18.8-1.3
			c-5.5-4.2-1.6-12.1-2.4-18.3c-0.6-4.9-2.5-7.8-8-7.3c-1.9,0.2-4.1,0.3-5.8-0.4c-4.6-1.9-8.2-0.8-9.2,3.8c-1,4.4,2.6,6.6,6.6,6.7
			c5.4,0.1,6.5,3.3,6.3,7.8c-0.6,9-6.9,15.4-10.6,23c-1.2,2.5-3.6,4.5-1.9,7.5c0.9,1.7,2.3,3.7,4.5,3.1c3.4-0.9,4.7-3.6,4.7-7
			c0-4.6,1.3-7.4,6.4-4.3c1,0.6,1.9,1.5,2.9,0.7c6.3-4.5,7.1-0.2,7.5,4.6c0.3,4,2.9,5.1,6.3,5c3.9,0,7.8,0.1,11.7,0
			c5-0.2,9,0.4,8.9,6.9c-0.1,3,1.8,5.8,4.9,5.8c3.1,0,5-2.7,4.9-5.7c-0.1-6.5,3.8-6.7,8.8-7.1c9.4-0.9,18.6,5.2,28.1,0.3
			c2.3-1.2,4.5,0.8,6.3,2.9c2.2,2.6,5.4,4.7,8.8,2c4.6-3.7,9.8-3.3,15.1-3.4c9.7-0.2,19.5,1.1,29.2-1.5c2.1-0.6,4.7-0.7,6.4,1.1
			c2.1,2.4,4.4,1,6.6,1.4c9,1.5,16.8-5,25.6-2.8c2.1,0.5,4.5,0.2,6.7,0c3-0.3,5.8-1.8,5.8-5c0-3.1-2.8-4.7-5.8-4.9
			c-4.2-0.2-8.4-0.2-12.6-0.1c-4.5,0.1-7.7-0.8-7.8-6.2c-0.1-5.2-3.4-7.2-8.4-7.2c-5,0-8,2.2-8.3,7.3c-0.2,2.7-0.7,5.6-3.7,5.8
			c-5.5,0.4-11.2,0.6-16.7-0.2c-4.4-0.7-2.4-5.6-3.8-8.4c-1.3-2.7-3.5-4.3-6.6-4.4c-3.1,0-6.2-0.2-9.2,0c-6.3,0.4-11.3-0.2-10.6-8.6
			c0.3-3-1.7-5.9-4.8-5.8c-3.6,0.1-5,3.2-5.1,6.6c-0.1,5-0.1,10.1-0.1,15.1c0,4.2-2,6.1-6.2,6.1c-10.6,0-21.3-0.2-31.9,0.1
			c-3.7,0.1-5.9-4.6-10.7-1.5C562.1,730,559.3,727.3,559.8,720.7z M682,593.5c-5.3,0-10.6,0.1-15.9,0c-3.9-0.1-8.1,0.4-8.6,4.7
			c-0.4,3.9,3.3,5.2,7,5.4c7.1,0.4,5.3,5.8,5.6,10c0.3,5.1-2.3,6.9-7.2,6.8c-6.4-0.2-12.9,0-19.3,0c-18.6,0-19.4-0.8-17-19.4
			c0.4-3.5,2.1-7.1-3.3-7.3c-4.3-0.2-6.7,2.6-6.9,6.8c-0.2,3.9-0.1,7.8-0.1,11.7c0.1,4.2-0.2,8.2-5.8,8.1c-4.6-0.2-10.8,2.1-11-6.2
			c-0.1-3.4-1.6-6.4-5.2-6.4c-3,0.1-4.8,2.9-4.7,6c0.1,5.9-3.3,6.9-8.2,6.7c-6.4-0.2-12.9-0.2-19.3,0.1c-3,0.1-5.7,1.9-5.5,5.2
			c0.1,2.7,2.6,4.5,5.3,4.5c12,0.3,24.1,1.7,35.8,1c9.3-0.6,18.2,0.7,27.3,1c3.3,0.1,5.4,2.1,4.2,5.6c-1.2,3.5,0.6,4.6,3.2,5.5
			c3,1.1,5.8-0.6,6.2-2.9c2-11.9,12-8.3,19-9.9c4.5-1,9.5-0.3,14.2-0.2c3,0.1,6.4-0.6,7.1-3.4c1.6-6.2,4.3-6.2,10.6-7.1
			c8.7-1.2,7.4,2.5,7.4,7.1c0,2.7-0.9,5.5-1.6,8.1c-0.9,3.6-1.9,6.8,3.5,8c5.2,1.1,7.6-1.5,8.1-5.9c0.4-4.2,1.5-6.7,6.3-7
			c7.6-0.4,7.3-6.1,7.3-11.7c0-5.5,0.3-11.1-7.3-11.7c-3.1-0.2-6-0.9-6-4.4c-0.1-8.3-5.2-9.4-11.8-9.1
			C691,593.7,686.5,593.5,682,593.5z M1184,293.9c-0.4,5.4,2.1,10.5,5.4,15c10,13.8,24,22.3,38.8,29.8c2.5,1.3,4.3,0.3,6.2-0.7
			c12.5-6.4,24.3-13.9,33.8-24.4c4.2-4.6,7.4-9.8,8.7-16c2.3-11.4-3.1-16.7-14.4-14.1c-9.4,2.2-17.9,6.5-25.8,11.7
			c-4.3,2.8-7.6,2.9-12,0.1c-8.4-5.5-17.4-10.2-27.4-12.1C1188.4,281.5,1184,285,1184,293.9z M712,192.7
			c0.4-10.3-3.3-13.9-12.3-12.7c-10.8,1.4-20,6.9-29.1,12.4c-3.8,2.3-6.4,2.8-10.4,0.2c-5.8-3.8-12.1-7-18.6-9.5
			c-6.8-2.7-15.1-7.2-20.9,0c-5.9,7.4-1,15.4,3.2,22.5c0.4,0.7,1,1.4,1.5,2c9.8,12.4,22.9,20.3,36.5,27.6c2.4,1.3,4.8,1,7.2-0.3
			c13-6.8,25.3-14.4,34.9-25.7C708.4,203.9,711.5,198.1,712,192.7z M521.3,486c-4.1,0.1-8.7-1-11.3,3.5c-1.6,2.8,0.3,5,2.3,6.4
			c5.3,3.8,4.6,9.9,2.6,13.6c-3.6,6.7-11.1,2.5-16.8,3.2c-4.9,0.6-5.9-2.9-6-7c-0.1-2.8-1.8-4.9-4.4-5.6c-2.5-0.6-4.8,1.7-4.9,3.6
			c-0.1,7.2-4,9.4-10.4,10c-2.8,0.3-4.9,2.9-4.8,6c0.1,2.4,2.2,3.1,4.3,3.1c9.9,0,16.7,6.8,24.4,11.3c3.9,2.3,6.9,1.1,10.2,0
			c1.5-0.5,4.2-1.6,3.1-3.2c-5.6-7.7,1.3-7.1,5.3-8.8c2.7-1.2,4.2-3.6,4.1-6.7c0-2.6,1.5-5.2,3.9-3.9c9.4,5.3,8.2-3.7,9.1-7.2
			C535.2,491.1,531.9,486,521.3,486z M735.9,714.5c-4.1,0-9-1-11,3.8c-2,4.9,3.4,6.3,5.6,9.1c3,3.7,5.7-3.5,8.7-0.5
			c3.6,3.6,4.9,1.1,6.4-2C749.1,717.7,746.2,714.5,735.9,714.5z M626.1,491.6c-1.5-5.5-5.6-5.9-9.9-5.6c-4.7,0.3-10.5-1.8-12.6,5
			c-0.2,0.6,0.4,1.5,0.9,2.2c2.7,4.1,15.8,5.9,19,2.5C624.6,494.5,625.3,493,626.1,491.6z M534.2,529.2c-2-3.1-5.3-7.6-7.2-6.8
			c-3.6,1.6-7.7,5.6-8.3,9.2c-0.4,2.3,4.8,7.4,8.6,7.2C531.9,538.6,531.9,532.7,534.2,529.2z M735.2,597.3c-0.4-2.8-2.3-3.7-4.7-3.6
			c-3.1,0.1-5.8,1.8-5.8,4.8c-0.1,3,2.4,5.1,5.6,4.8C733.6,603,734.1,599.8,735.2,597.3z M728.9,809c-2.5,0.9-4.7,2.4-4.3,5.3
			c0.3,2.1,1.5,4.3,4.3,4.2c2.9-0.1,5-1.3,4.8-4.4C733.4,811.4,731.5,809.7,728.9,809z M752.1,596c-0.2-1.7-1.3-2.3-2.9-2.3
			c-1.1,0-2.5,0-2.6,1.4c-0.1,2.2,1.9,2.5,3.4,2.9C751.3,598.2,752.1,597.3,752.1,596z M690.3,631.8c-0.5-0.9-0.7-1.9-1.2-2.1
			c-1.3-0.4-1.9,0.6-1.9,1.7c0,0.6,0.7,1.4,1.2,1.6C688.9,633,689.6,632.2,690.3,631.8z"/>
		<path class="st1" d="M440,512.9c1.1,0,2.2,0,3.3,0c4.6,0,9.4,1.5,9.3,6.2c-0.1,5.8-5.8,3.2-9.3,3.8c-1.1,0.2-2.2,0-3.3,0
			C440,519.6,440,516.3,440,512.9z"/>
		<path class="st2" d="M1102.2,548.2c4,5.3,8.4,10.2,10,16.9c-1.2-0.6-2.5-1.2-3.7-1.7c-0.4-0.6,0.8-2.3-1.2-1.8
			c0.4,0.6,0.8,1.2,1.3,1.7c-0.2,2.6,0.9,4.9,1.9,7.2c6.2,15.5,12.7,30.9,17.7,46.8c8.9,28.5,16.8,57.2,23.7,86.2
			c9.6,40,18.4,80.3,24.5,121c3.2,21.5,9.3,42.4,0.3,64.6c-6.2,15.3,3.1,24.6,19.9,25.3c23.5,1,44.2-7.8,64.8-17
			c-1.2,10.6-10.2,12.3-17.9,15.1c-6.5,2.4-13.8,2.1-20,5.7c-20.9,12.1-42.9,12.2-65.5,5.8c-4.8-1.4-9.7-3.4-15.2-2.1
			c1.4,4.5,5.8,3.1,8.6,5.7c-18.2,6.2-36.5,6.2-54.9,4.6c-3.9-0.3-7.5-0.7-11.4,0.2c-17.8,4-34.9,2.7-50.4-8
			c-7.6-5.2-14.3-3.1-20.2,2.8c-4.5,4.5-9.7,5.8-15.9,5.7c-7.3,0-14.2-2.4-19.8-6.1c-10.2-6.7-19-6.5-28,1.2
			c-1.1-0.2-2.2-0.4-3.2-0.6c-1.9-2.1-3.7-4.2-5.7-6.2c-9.4-9.6-8.1-18.7,3.9-24.7c4.7-2.4,9.8-4,14.7-5.9
			c5.8-2.2,11.2-2.9,13.8,4.8c3.1-3,3.4-6,3.2-9.2c-1.2-18.6-1.5-37.3-3.8-55.8c-2.9-23.5-5.2-47.1-5.9-70.6
			c-1.6-53.2-0.6-106.4,11.2-158.8c5.1-22.7,12.2-44.6,21.7-65.7c2.8-6.3,6-7.9,10.6-1.5c10.3,14.2,24.3,19.8,41.6,17.5
			c1.6,4.1,5.5,4.5,6.9,1.5c2.2-4.8,6.9-5.2,10-8c1.6-1.4,5.4-1.4,4.1-5.2c5.2-1.7,10.5-5,15.6-4.7c4.4,0.2,5.4,7.1,8.8,10.2
			C1099.5,546.4,1100.9,547.3,1102.2,548.2z"/>
		<path class="st3" d="M1219.4,872.2c23.6,3.4,46.2,10.3,66.6,22.8c14,8.6,13.5,21.5,0.2,30.8c-20.9,14.6-45.2,20.1-69.5,25.1
			c-33.2,6.9-66.8,10.7-100.6,14.1c-62.1,6.2-124.4,5.5-186.5,4.2c-36.6-0.7-73.2-4.1-109.6-9.2c-33.4-4.7-66.5-10.4-98.5-20.9
			c-9.2-3-18.2-7.5-26.2-12.9c-14.5-9.8-13.1-23,2.2-32.5c15.9-9.9,33.9-14,51.3-19.8c1.3-0.4,2.5-1.1,3.7-1.6
			c2.2-0.1,4.5-0.1,6.7-0.2c1.7-0.5,3.4-1.1,5-1.6c9.9-3,20.8-1.7,30.3-6.6c2.2,0,4.4-0.1,6.7-0.1c4.1-0.6,8.2-1.1,12.3-1.7
			c1.4,7.1,2.7,14-1.1,21.1c-2.7,5-1.2,9,4.9,10.9c6.9,2.1,13.9,1.8,20.8,1.4c13.4-0.8,15.7-4.3,11.3-16.7l-0.1,0
			c3.3-1.1,2.3-3.9,2.4-6.2c0.2-5.2,0.2-10.4,0.2-15.6c2.5,0,4.9,0,7.4,0c0.2,6.1,0.4,12.1,0.6,18.2c-0.8,0.8-1,1.5,0.1,2.1l0,0
			c0.7,1.5,2.1,1.5,3.4,1.6c-4.9,11.1-3.4,14.5,8.6,16.1c7.4,1,15,1.3,22.4-1.1c7.8-2.5,9.6-6.2,4.8-12.9c-2.9-4-4.1-7.7-3.5-12.3
			c3.1-4.7,0-10.4,2.5-15.2c13.6,1.1,27.1-2,40.7-1.7c-10.5,22-21.5,43.8-43.7,56.8c-4.9,5.5-4.1,7.2,5.2,10.6
			c14.7,6.8,30.4,9.3,46.4,10.4c0.8,0.4,1.6,0.7,2.4,1.1c1.1,0,2.2,0,3.3-0.1c8.6-7.1,16.5-6.5,26.3-0.8
			c13.4,7.8,27.9,10.4,40.8-2.5c4-4,8.3-3.5,12.8-0.6c16.1,10.2,33.6,12.7,52.2,9c3.2-0.6,6.3-1.9,9.8-1.3c17.8,3,35.5,2,53-2.8
			c6.3-1.7,12.2-4.4,19.4-2.7c15.8,3.7,31.8,3.5,46.8-3c11.5-5,23.1-9.2,35.3-12.3c6.5-1.6,12.8-4.9,15.2-12
			c1.1-3.4,3.8-8.6-3.5-9.3C1243.6,892.1,1231.8,881.6,1219.4,872.2z"/>
		<path class="st1" d="M813.4,862.2c-4.1,0.6-8.2,1.1-12.3,1.7c2.5-6.8,1.6-11.6-7-11.8c-2.3-0.1-3-2.3-4.4-3.5
			c-3.7-3.1-7.9-4.6-12.1-1.2c-3.6,3-4.8,7.4-2.1,11.2c2.5,3.6,5.3,8.3,11.4,4.3c2.2-1.5,5.4-1.6,7.6,1c-9.5,4.9-20.4,3.6-30.3,6.6
			c2-4.9,0.4-10-0.4-14.7c-1.1-5.7-10.5-7.3-15.1-1.8c-5.5,6.5-12.1,4.6-18.5,4.5c-3.8,0-5.9-2.9-6.2-6.7c-0.2-2.3-0.3-4.5-2.6-5.8
			c-3.9-2.2-24.3-0.1-28,2.8c-5.1,4-12,4.4-17.3,8.9c-2.7,2.3-5.8-2.2-5.9-5.8c-0.1-6-3.7-6.6-8.4-6.6c-4.5,0.1-8.5,0.1-8.6,6.3
			c-0.1,5.2-3.5,7.2-8.4,7.2c-5.6,0-11.2-0.2-16.8,0c-6.6,0.3-11.6-0.8-11.9-9.1c-0.2-5.2-4.9-4.3-8.5-4.4c-3.7-0.1-7.7-0.2-8,5
			c-0.2,3.6-1,7.4-4.9,7.6c-4.1,0.2-5-3.7-5.5-7.2c-0.2-1.8-1.8-2.7-2.9-3.9c-1.3-1.4-2.7-3-3.1-4.8c-1-3.7,9.8-19.4,13.6-20.3
			c6.6-1.6,12.4-5.7,17.9-8.9c5.5-3.2,10.3-4.4,16.1-4.5c5.2-0.1,8.9,1.7,9.1,7.4c0.2,4.9,2.9,6.2,7.1,6c4.2-0.1,8.4-0.2,12.6,0
			c6.3,0.4,10.1-0.5,11.3-8.4c0.8-5.3,6.1-9.9,7.9-15.8c0.9-3.2,5.1-2.9,8.2-2.7c3.1,0.2,5.7,1.7,6,4.8c0.3,2.9-2.2,4.7-4.8,4.9
			c-5.9,0.5-6.3,4.1-6.4,8.8c0,4.8,0.8,8,6.5,8.7c3.7,0.5,5.3,3.6,5.4,7.5c0.1,5.8,4.2,5.6,8.3,5.6c4,0,8.3,0.3,8.4-5.5
			c0.1-4.2,1.9-7.4,6.1-7.7c5.1-0.3,5.5,3.9,5.7,7.6c0.3,5.1,3.5,5.7,7.5,5.6c4.3-0.1,6.3-2.3,5.8-6.3c-0.4-4.2,2.3-6.6,4.6-9.5
			c1.2-1.5,2.4-2.9,3.8-0.8c3,4.5,7.5,2.7,11.5,3.1c6.5,0.7,8.9-2,8.9-8.6c0-7.1-3.3-8.8-9.3-8.2c-3,0.3-6.1-0.6-9.1,1
			c-1.7,0.8-2.2,5.2-5,2.3c-2-2.1-3.9-5-3.3-8.3c0.5-2.7,2.6-4.6,5.2-4.8c8.6-0.9,17.2,0.2,25.9-1.3c3.9-0.7,5.5,3.8,5.5,7.9
			c-0.1,8.7,0.1,17.4-0.1,26c-0.1,5.4,2,7.7,7.4,7.5c5.3-0.2,10.6,0.1,15.9-0.1c3.8-0.2,6.4-2.3,6.7-6.2c0.3-4.4-3.3-3.6-5.9-3.8
			c-5.2-0.4-7.3-3.4-7.3-8.4c0-5,2.2-7.8,7.3-8.4c3.3-0.4,6.6-1.1,9.8-1.7c0.2,1.9,1.4,2.8,3.1,3.3c-3.3,10.8-0.5,21.4,1.3,32
			C812.9,848.9,813.1,855.6,813.4,862.2z M764.2,840.5c0.2-3.7-1-7.4-4.8-7.6c-4-0.2-5.2,3.4-5.3,7.1c-0.1,3.9,0.7,8.1,5.2,8
			C763.2,848,764.3,844.2,764.2,840.5z"/>
		<path class="st4" d="M1102.1,238.9c0.2,0.4,0.4,0.7,0.6,1c1,6.3,4.5,10.8,9.3,15c10.2,8.8,15.7,20.9,14.6,33.9
			c-0.8,8.8-4.3,17.9-9.1,26c-3,1.6-2.7,8-8.3,5.6c-0.1-3.7-0.2-7.3-0.4-11c2.5-0.3,3.3-2,3-4.2c-1.7-12.9-2.5-26.1-11.5-36.8
			c-2.6-3.1-4.1-7.1-9.2-7.7c-24.3-3.1-48.4-2.7-72,4c-17,4.8-31.5,13.4-41.4,29c-12.2,19.3-11.7,39.9-7.7,63.2
			c0.6-5.1,1-8.1,1.3-11c1.9,5.7-0.1,11.9,2.7,17.4c0.1,1,0.3,2.1,0.4,3.1c-2.4,6.9-4.4-1.1-6.6-0.2l-0.4,0.2l0.4-0.2
			c0.3-1.5-0.2-2.7-1.7-3.3c-0.6-2.2-1.2-4.4-1.9-6.5c2.2-2.2,1-4.5,0.6-7c-1.5-9-3.6-18.1-3.9-27.1c-1-29.9,5.9-57.3,26.1-80.4
			c14.7-16.8,32-27.4,55.1-26.6c6.5,0.2,13,0,19.6,0c-5.6-5.4-12.9-1.2-18.6-4.7c10-1.5,19.6-0.7,28.4,4.8c-1.6,0.7-3.6-0.9-5.2,0.9
			c2.1,1.3,3.8,0.8,5.2-0.9c1.7,0.5,3.4,1.1,5.1,1.6c1.3,1.8,3.1,2.8,5.3,3c0.3,0.3,0.7,0.5,1.1,0.6c0.7,0.5,1.3,0.9,2,1.4
			c0.7,0.5,1.3,0.9,2,1.4c1.6,3.6,4.3,5.9,8.2,6.9c0,0,0,0,0,0c0.2,2,1.4,3.1,3.3,3.5c0,0,0,0,0,0
			C1098.6,236.5,1099.8,238.1,1102.1,238.9z M1091.3,242.5c2.9-0.4,7.3-0.3,4.2-4.3c-3.5-4.4-8.5-8.1-15-7.1
			c-1.7,0.3-2.4,1.9-1.7,3.1C1081.7,239,1086.1,241.5,1091.3,242.5z M1078.8,242.6c-1,0.2-3.5-0.3-2.8,2.1c0.9,2.8,3.9,3.7,6.6,4.2
			c1.5,0.3,4,0.2,3.2-2.2C1084.9,244,1082.4,242.6,1078.8,242.6z"/>
		<path class="st5" d="M1115.9,516.7c-1.2,1.7-2.5,3.5-3.7,5.2c-3.9-0.1-6.6,2.8-10,3.9c-17.7,5.5-34.3,16-54.1,12.3
			c-2.8,0-5.6,0-8.4,0c0-0.5,0-1,0.1-1.5c2.6-1.7,0.4-3.4,0-5.1c2.4-1.7,1.4-4.2,1.7-6.5c1.1-0.2,2.1-0.4,3.2-0.6
			c4.5-0.7,8.9-2.1,13.5-1.4c0.1,2.2,1.4,3.2,3.4,3.3c1.8,3.5,4.4,3.7,7.6,1.9c4.9-2.6,10-4.8,14.1-8.7c7.3-1.3,12.8-6.7,19.5-9.2
			c1.7-0.6,2.7-2.5,2.2-4.1c-3.1-9.3-5.3-19.1-11.9-26.8c-2.2-6.1-4.3-12.2-6.5-18.4c-2.7-15.9-15.9-18.5-28.1-22.4
			c-1.1-3.6-4.2-3.9-7.2-4.6c-9.2-2.2-18-0.3-26.8,1.9c-4.3-1.9-5.7,3.6-9.3,4c-0.6-2.8-0.9-5.3-1.7-7.6c-0.8-2.4-0.8-6.8-4.4-5.6
			c-2.8,1-2,5.4-0.3,7.3c6.6,7.4,0.6,10.1-4.5,13.3c-5,2.6-5.1,6.4-3.3,11.2c1.7,4.6,5.6,8.5,5.1,13.9c0,1.2,0,2.5,0,3.7
			c-0.7,7.1-1.3,14.3-2,21.4c-10,10.6-21.6,19.1-33.6,27.2c-3.2-3.8-4.2-8.5-5-13.2c6.3-2.5,11.1-7.1,15.9-11.7
			c2.2-2.1,4.4-4,4.6-7.6c0.4-7.7,0.5-15.6,1.8-23.2c3-18.3,1.7-38.2,18.4-51.6c4.2-1.8,8.4-3.6,11.7-7l0,0c2.4-0.1,5.1,1.1,6.8-1.7
			c0,0-0.1,0.1-0.1,0.1c4-0.3,9.4,2,9.9-5.1c4.4-6.1,9.6-6.5,15.4-2.2c1.8,1.3,3.6,2.5,5.9,2.4c0.7,5.8,6.1,3.4,9,5.2
			c4.6,6.5,13.6,6,18.6,11.6c2.6,3,5.2,2.2,8.2,1.5c2.3,1.8,4.5,3.6,6.8,5.4c1.8,3.2,3.6,6.4,5.4,9.6c0.5,1.2,0.9,2.4,1.4,3.5
			c0.1,14.1,6.9,26.4,10.5,39.5c0.2,1.8,0.3,3.6,0.5,5.4C1114.5,496,1119.5,506.4,1115.9,516.7z"/>
		<path class="st6" d="M1043.1,210.8c5.7,3.6,13.1-0.6,18.6,4.7c-6.5,0-13.1,0.2-19.6,0c-23.1-0.8-40.4,9.8-55.1,26.6
			c-20.2,23.1-27.2,50.6-26.1,80.4c0.3,9.1,2.4,18.1,3.9,27.1c0.4,2.5,1.6,4.8-0.6,7c-7.2-14.2-9.9-29.8-13.7-45.1
			c3.8-8.6,8.8-17.1,3-26.8c0.9-0.6,2-1.5,1.3-2.5c-1.5-2.3-3.8-0.9-5.8-0.7c-9-0.7-3.5-8.2-5.7-12c0.7-2,0.7-3.8-0.9-5.4
			c-0.2-1-0.4-2-0.5-3c0.4-5.2-2.1-9.7-3.2-14.6c-1.5-6.6-4.9-9.4-12.3-8.8c-23.7,1.7-47.6,1.2-71.3-0.7
			c-22.9-1.8-46.4-1.9-66.6-16.3c-4.5,8.6-5.8,18.2-9.3,26.9c-2.3,7.7-3.2,15.5-3,23.5c0.1,3.2,0.1,6.1-3.5,7.5
			c-0.5,0.2-1,0.4-1.6,0.5c-0.6-0.4-1.1-0.9-1.7-1.3c-0.5-0.6-1-1.1-1.6-1.7c0,0-0.2,0.2-0.2,0.2c0.3-6,0.7-12,1-18
			c2.4-8,8-15.7,2.2-24.5c-1.2-1.8-2.1-3.7,2.1-4.1c7.4-0.8,9.3-5.9,7.3-12.7c-1.1-4-2.1-8-3.1-12c0.2-0.9,0.5-1.8,0.7-2.7
			c6.4,8.6,16.8,10.4,25.8,13c15.2,4.4,30.9,4.1,45.5-3.9c0.5-0.2,1.4,0.3,2.2,0.6c-2.4,7.6-11.1,7.7-15.8,13.4
			c34.2,6.1,67.2,11.2,92-22.8c-1.5,13.5-7.9,22.3-18,29.1c5.2,0.8,9.4,0.4,13.5,0.9c5.9,0.8,12.4-4.9,17.8,2.3
			c3.9,5.2,6.7,10.9,8.8,16.9c0.5,1.5,1.2,2.9,1.8,4.3c1-10.1,2.6-20.7-3.9-28.8c-4-4.9-1.8-5.5,1.8-7.5c12.4-7,20.9-16.8,24-31.3
			c1.5-6.8,0-8.5-6.5-8.2c-9.5,0.4-19,0-25.9-8.2c10.4,0.4,20.8,0.4,30.5-3.9c3.5-1.5,4.3,0.9,6,2.3c3.6,9.7,5.4,19.6,3.6,30
			c-0.2,0.2-0.5,0.3-0.5,0.5c0,0.4,0.2,0.9,0.3,1.3c-0.3,1-0.6,2.1-1,3.1c-1.2,1.2-1.8,2.5-1.3,4.2c-0.4,0.8-0.8,1.7-1.2,2.5
			c-1.4,0.6-2,1.6-1.7,3.1c0,0-0.1,0.2-0.1,0.2c-2.6,1-3.8,3-4.4,5.6c0,0,0.1-0.1,0.1-0.1c-1.2-0.1-1.8,0.5-1.7,1.8c0,0,0,0,0,0
			c-1.2-0.1-1.8,0.4-1.8,1.6c0,0,0,0,0,0c-1.2-0.1-1.8,0.3-1.9,1.6c0,0,0,0,0,0c-3.8,1-8.1,2-8.2,6.7c-0.3,12.2-0.1,24.4-0.1,36.6
			c2.1-6.7,2-13.7,4.9-20c3.5,0.3,1-2.3,1.6-3.3c0.3-0.5,0.6-0.9,0.9-1.4c0.4-0.4,0.7-0.8,1.1-1.2c0,0,0.3-0.4,0.3-0.4
			c1.5-0.2,2.5-0.8,2.3-2.5l0.6,0.5c0,0-0.6-0.6-0.6-0.6c4.7,0.5,6.7-2,7.2-6.3c0,0-0.1,0.1-0.1,0.1c2.2,0.3,3.4-0.6,3.8-2.8
			c0,0,0.4-0.2,0.4-0.2c0.4-0.3,0.8-0.6,1.3-1c0.1-0.5,0.4-0.7,0.9-0.6c4.4-0.5,8.7-1.3,10.9-5.9c0.7-0.3,1.3-0.6,2-1
			c2.5-0.1,5.4,0.5,6.4-2.9c0.6-0.2,1.2-0.3,1.9-0.5c11.1,0.2,21.1-5.8,32.2-6.1c0.4,0,0.8-1.3,1.1-2.1
			C1038.6,210.9,1040.9,210.8,1043.1,210.8z M956.4,274.1c-0.2,0.5-0.6,1.1-0.4,1.5c0.2,0.7-0.6,2.2,0.8,1.8
			C957.3,277.1,957.5,275.1,956.4,274.1z"/>
		<path class="st7" d="M1219.4,872.2c12.4,9.4,24.2,19.9,40.9,20.6c0.3,1.6,0.6,3.1,1,4.7c-20.7,9.2-41.3,18.1-64.8,17
			c-16.7-0.7-26.1-10-19.9-25.3c9-22.2,2.9-43.2-0.3-64.6c-6-40.8-14.9-81-24.5-121c-6.9-29-14.8-57.7-23.7-86.2
			c-5-16-11.5-31.3-17.7-46.8c-0.9-2.4-2.1-4.6-1.9-7.2l0,0c1.2,0.6,2.5,1.2,3.7,1.7c4.7,8.2,10.5,15.8,13.1,25.2
			c-2.8,3.1-0.1,4.7,1.7,6.6c0,0,0,0,0,0c0.9,9.2,5.9,16.8,9.4,25c0.5,1.9,1,3.8,1.6,5.6c12.7,34.7,22.7,70.4,31,106.3
			c5,21.5,10.2,43.2,11.9,65.4c0.9,11.1,8.1,20.7,7.9,31.9c-0.3,12.7,6.4,20.8,15.4,27.9l-0.1-0.1c0.7,1.6,1.1,3.7,3.6,1.7
			C1211.7,864.5,1215.6,868.4,1219.4,872.2z"/>
		<path class="st1" d="M752,538.1c-6.8-2-13.8-1.8-20.7-1.7c-5.2,0.1-8.8-1.8-9-7.5c-0.2-4.9-3-6-7.2-6c-4.1,0.1-6.2,1.8-6.3,6
			c-0.1,3.1-0.6,6.5-4.4,7.2c-3.6,0.7-5.6-1.9-7.2-4.6c-1.4-2.4-2.6-3-6-2.2c-5,1.2-10.8,1.2-14.7-3.7c-1.8-2.3-4-3.1-6.6-2.2
			c-2.5,0.8-3.2,3-3.1,5.4c0.2,3.6-0.4,7.2-4.1,8.4c-3.8,1.2-4.5-3.3-6.7-5c-5.1-3.9-11.1-4.5-15.7,0.3c-4.4,4.7-9.6,3.5-14.7,3.9
			c-7,0.5-8.8-3.6-9.7-9.7c-0.7-5-5.6-3.5-9-3.7c-3.6-0.2-7.1,0.2-7.2,4.9c-0.2,7.2-4.5,8.8-10.6,8.6c-4.7-0.2-9.5-0.2-14.3,0
			c-6.9,0.3-12.1-0.6-12.6-9.4c-0.2-4.1-9.1-5.8-14.4-3.2c-2,0.9-2.9,3.5-5.5,3.5c-0.4-13.1,0.9-14.4,13.3-14.4c7,0,14,0.1,21,0
			c5.6-0.1,9.3,1.8,9.5,7.9c0.1,3.3,1.5,5.4,5,5.4c4.1,0,4.9-2.8,5.1-6.2c0.2-4.6,0-8.7-4.5-11.7c-2.5-1.7-2.5-4.8,0.4-7.1
			c3.4-2.7,5.7-0.1,6.5,2.3c1.6,4.5,0.8,10.6,8.5,9.5c4.9-0.7,10.2,1.5,14.7-1.6c2.3-1.6,3.8-0.8,6,0.2c8.6,3.6,12.3,1.8,15.6-7
			c2.4-6.3,7.9-4.9,12.8-5.1c4.5-0.2,8.7,0.3,10.1,5.3c0.9,3.4-0.2,7.9,5.3,7.9c6.1,0,4.1-5.3,5.6-8.5c2.4-5.1,7.1-8.9,7.7-15.1
			c0.1-1.3,2.1-2.9,3.9-2.4c2.7,0.7,4.4,2.7,4.5,5.4c0.3,4.7,0.2,9.5,0.2,14.3c-0.1,4.6,2,6.6,6.6,6.6c7.3-0.1,14.6-0.6,21.8,0.2
			c6.3,0.7,7.2-4.5,10.6-7.1c4.6-3.5,5,7.3,10.5,5c3.6-1.5,5.4-4.6,5.9-8.4c0.3-2.5,1-5.1,0.5-7.5c-2.6-11.9,4.9-11.5,12.7-10.8
			c-2.2,8.2-4.3,16.5-6.6,24.7C752.9,518.6,749,527.9,752,538.1z"/>
		<path class="st1" d="M559.8,720.7c-0.4,6.6,2.4,9.3,7.8,5.8c4.9-3.1,7.1,1.6,10.7,1.5c10.6-0.3,21.3-0.1,31.9-0.1
			c4.2,0,6.2-1.9,6.2-6.1c0-5,0-10.1,0.1-15.1c0.1-3.4,1.5-6.5,5.1-6.6c3.1-0.1,5.1,2.8,4.8,5.8c-0.7,8.4,4.4,9,10.6,8.6
			c3.1-0.2,6.2,0,9.2,0c3.1,0,5.3,1.6,6.6,4.4c1.4,2.8-0.6,7.8,3.8,8.4c5.5,0.8,11.1,0.6,16.7,0.2c3-0.2,3.5-3.1,3.7-5.8
			c0.3-5.1,3.3-7.3,8.3-7.3c5,0,8.2,2.1,8.4,7.2c0.2,5.5,3.4,6.4,7.8,6.2c4.2-0.1,8.4-0.1,12.6,0.1c3,0.2,5.8,1.8,5.8,4.9
			c0,3.2-2.7,4.7-5.8,5c-2.2,0.2-4.6,0.6-6.7,0c-8.8-2.3-16.7,4.2-25.6,2.8c-2.1-0.3-4.5,1-6.6-1.4c-1.6-1.8-4.3-1.7-6.4-1.1
			c-9.6,2.6-19.4,1.3-29.2,1.5c-5.3,0.1-10.5-0.3-15.1,3.4c-3.3,2.7-6.5,0.6-8.8-2c-1.8-2.1-4-4.1-6.3-2.9
			c-9.5,4.9-18.7-1.2-28.1-0.3c-5,0.5-8.9,0.7-8.8,7.1c0.1,3-1.8,5.8-4.9,5.7c-3.1,0-4.9-2.8-4.9-5.8c0.1-6.5-3.9-7.1-8.9-6.9
			c-3.9,0.2-7.8,0-11.7,0c-3.5,0-6-1-6.3-5c-0.4-4.8-1.2-9.1-7.5-4.6c-1.1,0.8-2-0.1-2.9-0.7c-5.1-3.1-6.4-0.3-6.4,4.3
			c0,3.4-1.3,6.1-4.7,7c-2.2,0.6-3.6-1.5-4.5-3.1c-1.7-3,0.7-5,1.9-7.5c3.8-7.5,10.1-14,10.6-23c0.3-4.5-0.8-7.6-6.3-7.8
			c-4.1-0.1-7.6-2.3-6.6-6.7c1-4.6,4.7-5.7,9.2-3.8c1.7,0.7,3.9,0.6,5.8,0.4c5.4-0.5,7.4,2.4,8,7.3c0.7,6.2-3.1,14.1,2.4,18.3
			c4.9,3.8,12.5,0.9,18.8,1.3C557.3,714.7,561.5,714.4,559.8,720.7z"/>
		<path class="st1" d="M682,593.5c4.5,0,9,0.2,13.4,0c6.6-0.3,11.7,0.8,11.8,9.1c0,3.5,2.9,4.2,6,4.4c7.6,0.6,7.3,6.2,7.3,11.7
			c0,5.5,0.3,11.2-7.3,11.7c-4.8,0.3-5.9,2.8-6.3,7c-0.5,4.3-2.8,7-8.1,5.9c-5.4-1.1-4.5-4.3-3.5-8c0.7-2.7,1.6-5.4,1.6-8.1
			c0-4.6,1.3-8.3-7.4-7.1c-6.3,0.9-9,1-10.6,7.1c-0.7,2.8-4.1,3.4-7.1,3.4c-4.8-0.1-9.7-0.8-14.2,0.2c-7,1.6-17-2-19,9.9
			c-0.4,2.2-3.2,3.9-6.2,2.9c-2.6-0.9-4.4-2.1-3.2-5.5c1.2-3.4-0.9-5.5-4.2-5.6c-9.1-0.3-18-1.6-27.3-1c-11.7,0.8-23.8-0.6-35.8-1
			c-2.7-0.1-5.1-1.9-5.3-4.5c-0.2-3.3,2.5-5,5.5-5.2c6.4-0.3,12.9-0.3,19.3-0.1c4.8,0.1,8.3-0.8,8.2-6.7c-0.1-3.1,1.7-5.9,4.7-6
			c3.6-0.1,5.1,3,5.2,6.4c0.2,8.3,6.4,6.1,11,6.2c5.7,0.2,5.9-3.9,5.8-8.1c-0.1-3.9-0.2-7.8,0.1-11.7c0.3-4.2,2.6-7,6.9-6.8
			c5.4,0.2,3.8,3.8,3.3,7.3c-2.4,18.7-1.6,19.4,17,19.4c6.4,0,12.9-0.1,19.3,0c4.8,0.1,7.5-1.7,7.2-6.8c-0.3-4.2,1.5-9.6-5.6-10
			c-3.7-0.2-7.4-1.5-7-5.4c0.5-4.3,4.7-4.8,8.6-4.7C671.4,593.6,676.7,593.5,682,593.5z"/>
		<path class="st8" d="M1184,293.9c0.1-8.9,4.4-12.5,13.2-10.7c10,2,19,6.7,27.4,12.1c4.4,2.9,7.7,2.7,12-0.1
			c8-5.2,16.5-9.5,25.8-11.7c11.3-2.7,16.7,2.6,14.4,14.1c-1.2,6.2-4.5,11.4-8.7,16c-9.5,10.5-21.3,18-33.8,24.4c-2,1-3.7,2-6.2,0.7
			c-14.8-7.6-28.9-16.1-38.8-29.8C1186.1,304.4,1183.6,299.3,1184,293.9z"/>
		<path class="st8" d="M712,192.7c-0.5,5.3-3.6,11.2-8,16.4c-9.6,11.3-21.9,18.9-34.9,25.7c-2.4,1.3-4.8,1.6-7.2,0.3
			c-13.6-7.3-26.8-15.2-36.5-27.6c-0.5-0.7-1.1-1.3-1.5-2c-4.2-7.1-9.1-15-3.2-22.5c5.8-7.2,14-2.7,20.9,0
			c6.5,2.6,12.8,5.7,18.6,9.5c4,2.6,6.7,2.1,10.4-0.2c9-5.5,18.3-11,29.1-12.4C708.7,178.9,712.4,182.4,712,192.7z"/>
		<path class="st9" d="M851.7,857.2c-0.1,5.2-0.1,10.4-0.2,15.6c-0.1,2.3,0.9,5.1-2.4,6.2c-0.3-2.2-0.7-4.4-1-6.6
			c0-52.6,0.1-105.2,0.1-157.7c0-15.7,0-31.3,0-47c0-3.8,0.3-7.4-5.3-7.2c-10.1,0.5-20-2.4-30.1-1.3c-3.3-0.5-6.6-1-10-1.5
			c-0.6-0.1-1.2-0.2-1.7-0.3c-2.4,1-2,3.1-1.8,5c0.7,10.3,0.8,20.8,2.5,30.9c1.1,6.6-0.6,13.1,1,19.5l0.1-0.1
			c-3.2-0.9-2.9-3.6-3.2-6.1c-1.6-13.2-1.3-26.5-3-39.7c-1-8-2.9-12.2-11.1-12.8c-2.5-0.2-4.9-1.2-7.3-1.7
			c-6.5-1.4-10.6-4.8-10.8-11.8c0.3-1.1,0.6-2.1,0.8-3.2c2.8-4.9,6.4-9.2,10.9-12.6c3.2-2.4,3.1-4.3,0.7-7.4
			c-13.6-18.1-19.6-39.2-24-60.9c2.8-2.3,1.1-5.4,1.7-8.2c6.9,23.1,12.9,46.6,26,69c1-4.5,1.7-7.4,2.3-10.3c0.5-0.1,1-0.1,1.5-0.2
			c0.6,0.6,1.2,1.2,1.9,1.8c-1.3,6.5-0.3,13.7-6.6,18.4c-4.9,2.1-7.6,6.4-10.2,10.6c-3,4.8-1.8,8.7,3.6,10.5c6,2.1,12,4.4,18.5,4.1
			c10.7,3.6,22,2.9,33,3.9c26.8,2.3,53.5,1.5,80.2-0.3c3.4-0.2,3.8-2.1,4.4-4.9c2.8-13.9,5.8-27.8,4.7-42.2
			c-0.4-5.7,1.8-12-3.2-16.9c0-0.6-0.1-1.2-0.1-1.8c2.7-2,3.9-4.6,3.3-7.9c0.6-0.1,1.3-0.2,1.9-0.4c-0.7,5.2-0.7,10.3,0.8,15.4
			c0.2,1.6,0.3,3.2,0.5,4.7c0.3,11.3,1.4,22.5,3.3,33.6c0.2,3.4,0.4,6.7,0.6,10.1c0.1,4.4,0.3,8.8,0.4,13.2c-0.3-0.2-0.6-0.2-0.8,0
			c-7.8-1.3-10.4,2.5-10.1,9.8c0.1,3.3,0.7,7-2.4,9.9c-1-4.5-1.7-9.1-0.8-13.4c1.3-5.9-1.4-6.4-5.9-5.7c-1.4,0.2-2.7,0.3-4.1,0.4
			c-8.5,0.3-17,0.4-25.5,1c-4.5,0.3-9.4-1.9-13.4,1.7c-0.6,1.2-1.2,2.5-1.8,3.7c-1.3-2.5-1.2-6.6-5.8-5.4c-3.6,0.9-2.3,4.1-2.3,6.3
			C851.6,730.5,851.7,793.8,851.7,857.2z"/>
		<path class="st10" d="M768.4,258.1c-0.3,6-0.7,12-1,18c-5.8-23-8.1-46.2-2.9-69.6c4-18,14.9-29.7,33-33.9c2.6-0.6,4.6-1.7,6.5-3.4
			c29.7-26,63.1-28.6,98.8-15c9.4,3.6,18.3,8.3,27.3,12.8c12.6,6.3,25.7,2.4,38.5-0.6c4.3-1,8.4-3.1,8.5,4c-1.7-1.4-2.5-3.8-6-2.3
			c-9.7,4.3-20.1,4.3-30.5,3.9c-5.4,0.2-10.9-0.1-15.3-3.1c-12.4-8.4-26.5-11.7-40.9-13.2c-24.1-2.6-48.2-2.7-68.8,13.1
			c-8.1,6.3-15.1,14-24,19.4c-5.8,3.5-10.2,8.5-14.1,14c-0.2,0.9-0.5,1.8-0.7,2.7C763.2,216.3,762.6,241.9,768.4,258.1z"/>
		<path class="st1" d="M767.5,640.6c0.2,7,4.3,10.5,10.8,11.8c2.5,0.5,4.8,1.6,7.3,1.7c8.2,0.6,10.1,4.8,11.1,12.8
			c1.7,13.2,1.4,26.5,3,39.7c0.3,2.5,0,5.2,3.2,6.1c-3.7,10.1,0.4,20.2-0.2,30.3c-5.8-4.2-13.4-1.4-19.5-4.9
			c-0.7-0.4-2.7-0.1-3.1,0.6c-5.2,7.6-16.4,3.4-21.5,11.1c-0.9,1.3-3,1.7-4.6,0.4c-5.4-4.3-3-10.4-3-15.7c-0.1-4.2,3-6.9,7.2-6.5
			c10.9,1,22.3-3.3,32.7,3.5c3.5,2.3,4.1-1.3,3.2-3.2c-7.8-17.2-1.6-35.1-2.8-52.6c-1.1-16.1-3.5-19.2-20-18.2
			c-8.7,0.5-10.4-1.4-8-9.7C764.1,645.3,762.9,641.1,767.5,640.6z"/>
		<path class="st1" d="M755.9,556.5c4.4,21.7,10.3,42.9,24,60.9c2.4,3.1,2.5,5-0.7,7.4c-4.5,3.4-8.1,7.6-10.9,12.6
			c-5.9-2.3-7-7.3-6.3-12.6c0.7-5.6-2.6-6.1-6.5-6c-3.9,0-8.7-0.6-7.5,5.7c0.5,2.9,0.6,5-2.6,5.8c-3.6,0.8-6.4-1-7.3-4.1
			c-1.3-4.5-1.6-9.2-2-13.9c-0.1-1.2,1.2-3.6,1.6-3.6c6.4,0.8,11.4-8.2,18.5-2.7c1.8,1.4,3.7,0.9,5.2-0.8c3.9-4.5,0.7-15.5-4.9-16.7
			c-2-0.4-5-0.7-4.8-2.5c1-8.5-5.5-8.1-10.5-9.3c-2.3-0.5-4.8-0.6-4.8-3.5c0-2.3,1.3-4.8,3.6-5.2c11.3-1.9,10.6-9.7,9.3-18.1
			c-0.4-2.7,0.2-5.1,3.7-5.2C753.9,548.7,754.9,552.6,755.9,556.5z"/>
		<path class="st1" d="M521.3,486c10.7,0,13.9,5,10.6,18.3c-0.9,3.5,0.3,12.5-9.1,7.2c-2.4-1.4-3.9,1.2-3.9,3.9
			c0,3.1-1.4,5.6-4.1,6.7c-4,1.7-10.9,1-5.3,8.8c1.1,1.5-1.6,2.7-3.1,3.2c-3.3,1.1-6.3,2.3-10.2,0c-7.7-4.5-14.6-11.2-24.4-11.3
			c-2.1,0-4.2-0.7-4.3-3.1c-0.1-3.2,2-5.8,4.8-6c6.4-0.6,10.3-2.8,10.4-10c0-1.9,2.3-4.3,4.9-3.6c2.5,0.6,4.3,2.8,4.4,5.6
			c0.1,4.1,1.1,7.7,6,7c5.8-0.7,13.3,3.5,16.8-3.2c2-3.8,2.7-9.8-2.6-13.6c-2-1.4-3.9-3.6-2.3-6.4C512.6,485,517.2,486.1,521.3,486z
			"/>
		<path class="st11" d="M755.9,556.5c-1-3.9-2-7.8-3.1-11.7c-0.3-2.2-0.6-4.5-0.9-6.7c-3-10.2,0.9-19.5,3.7-29
			c2.4-8.2,4.4-16.5,6.6-24.7c5.7-19,11.4-38.1,17.1-57.1c0.4-0.8,0.8-1.6,1.3-2.5c-0.2-0.3-0.2-0.6,0-0.9c1.2-0.6,2.5-1.1,3.7-1.7
			c2.7,5.5,4.1,11.4,5,17.4c2.4,16.5,1.6,33.1,1.9,49.7c-2.4,1.9-3.6,4.3-3.4,7.4c-0.5,2.2-0.6,4.4-1.4,6.5
			c-6.7,17.2-7.4,34.3-0.6,51.8c2,5.1,2.6,10.8,3.8,16.2c0.1,0.4,0.2,0.9,0.4,1.3c0.3-0.3,0.5-0.7,0.8-1c0,0-0.1,0-0.1,0
			c0.7,0.7,1.3,1.3,2,2c-0.6,7.9,1.3,15.9-1.5,23.6c-0.7,3.9-1.4,7.7-2.1,11.6c-0.6-0.6-1.2-1.2-1.8-1.8c0.7-6.1,2.1-12.1,1.8-18.2
			c-0.9-18.1-6.5-35.2-11.6-52.4c-1-15.6,4.4-30.2,7.3-45.2c3.6-18.6,3.6-37.1,0.6-55.6c-0.3-2.1-0.3-5.1-3.6-6.2
			c-0.4,1.1-0.8,2.1-1,3.1c-5.6,21-10.9,42-16.7,63c-4.8,17.3-12.1,34.3-6.7,52.9C757,551.1,758.7,554.2,755.9,556.5z"/>
		<path class="st9" d="M1204.4,859c-9.1-7.1-15.7-15.2-15.4-27.9c0.3-11.1-7-20.7-7.9-31.9c-1.7-22.2-7-43.9-11.9-65.4
			c-8.3-35.9-18.3-71.6-31-106.3c-0.7-1.8-1.1-3.7-1.6-5.6c0.7,0.1,1.5,0.1,2.2,0.2c18.7,46.7,31.6,95.2,42,144.3
			c5,23.4,9.1,47,13.1,70.6c0.9,5.6,3.7,9.7,6.7,14.1C1202.1,853.5,1205.2,855.3,1204.4,859z"/>
		<path class="st9" d="M784.4,422.2c-1.2,0.6-2.5,1.1-3.7,1.7c-0.3-3.8,2.9-5.1,5.1-7c13.9-12.3,30.9-19.5,46.5-29.1
			c0.4,0.5,0.8,0.9,1.2,1.4c-3.5,2.7-7,5.5-10.6,8.2c-2.1,1.6-3.9,3.4-3.1,6.3c1.6,5.2,3.4,10.4,5.1,15.6c1.7-4.5,1.3-8.9,4.3-12.3
			c0.1,1.9,0.7,3.9,0.4,5.7c-3,18.3,7.2,18.4,18.9,15.2c0.8-0.2,1.7-0.3,2.4-0.7c5.3-3.7,10.2-2.3,15.5,0.3
			c7.3,3.5,14.8,4.6,22.3,0.1c-7.5,5.5-10.3,13.2-12.2,22.2c-4.3,21.2-9.8,42.2-14.8,63.3c-0.6-0.7-1.2-1.4-1.8-2.1
			c5.2-23.6,10.4-47.2,15.7-70.8c0.5-2.3,2.5-6.5,0.1-6.6c-7.4-0.5-13.6-7.4-21.2-4.7c-8,2.9-15.7,4.9-25.3,1.9
			c10.1,27.7,19.8,54.1,29.5,80.4c-1.2,0.1-2.4,0.2-3.6,0.2c-0.1-1.1,0-2.3-0.4-3.3c-12.2-33.1-24.3-66.1-36.7-99.1
			c-0.9-2.3-0.5-6.2-4.1-6.5c-4.4-0.3-3.6,4.2-5.1,6.5c-0.8-0.1-1.5-0.1-2.3-0.2c-3.4-2-5.7,1-7.8,2.4
			C793.6,414.5,789.1,418.5,784.4,422.2z"/>
		<path class="st12" d="M834.8,363.2c-20-2.9-34.7-13.2-44-31.2c0-2.4,0.1-4.7,0.1-7.1c2.1,0.6,2.8,2.5,3.9,4.1
			c8.5,11.8,19,20.7,32.8,26.2c15.1,6,30.8,6,46.2,4.6c23.4-2.1,42.5-12.6,54.5-33.9c2.1-3.8,3.1-8.4,6.9-11.2
			c0.7,0.1,1.5,0.2,2.2,0.3c-1.3,3.8-2.5,7.7-3.8,11.5c-3,1.4-3.5,3.9-3.1,6.8l0.1,0c-2.5,0.8-3.6,2.5-3.4,5.1l0,0
			c-2.7,0.8-3.6,2.6-3.5,5.3c-1.7,1.6-3.3,3.2-5,4.8c-0.6,0.6-1.2,1.2-1.8,1.7l0.1,0c-3.6,0.5-6.9,1.4-8.3,5.2c0,0,0-0.1,0-0.1
			c-0.6,0.6-1.2,1.1-1.8,1.7l0.1-0.1c-1.9,0-4-0.5-5,1.8l0,0c-2.3-0.3-4.7-0.6-5.1,2.7c-2.3,0.6-4.6,1.2-6.8,1.8
			c-1.5-1.7-3.6-1.7-5.5-1.3c-14.4,3-28.9,1-43.4,1.6c-0.6,0.1-1.2,0.2-1.8,0.2c0,0,0.2-0.1,0.2-0.1
			C838.3,361.2,836.7,361.2,834.8,363.2z"/>
		<path class="st10" d="M1105.1,440.7c-0.5-1.2-0.9-2.4-1.4-3.5c3.4-1.2,3.1-4.1,3.4-6.9c2.6-23.6,2.8-47.2,0.1-70.8
			c-0.2-2.1-0.7-4.5,1.5-6.2c3.8,7.4,4.7,15.7,7,23.5c2,6.8-0.9,14.4,4,20.4c0.1,8.8,0.1,17.6,0.2,26.4c-4.2,8.1-3.8,16.7-3.1,25.4
			c-0.1,1-0.3,2.1-0.4,3.1c-3.3,0.7-1.6,4.5-4,6.2C1109.3,452.6,1109.1,445.9,1105.1,440.7z"/>
		<path class="st9" d="M1117.5,314.9c4.8-8.1,8.3-17.2,9.1-26c1.1-13-4.4-25.1-14.6-33.9c-4.9-4.2-8.3-8.7-9.3-15
			c4.2,7.6,12,11.7,17.5,18.1c12.8,14.7,13.7,31,5.6,48.1c-2.6,5.5-5.4,10.4-3.9,17.1c1.2,5.3,0,11.1-4.5,15.4c0,0-0.4-0.3-0.4-0.3
			c0.6-6.3,6.2-12.1,1.7-18.8C1118.3,317.9,1117.9,316.4,1117.5,314.9z"/>
		<path class="st9" d="M1048.1,538c19.8,3.7,36.4-6.8,54.1-12.3c3.4-1.1,6.1-4,10-3.9c-1.9,4.5-6.3,4.7-10,6.2
			c-6.2,2.5-9.3,5.8-3.8,12.1c1.9,2.2,3.6,4.9,3.9,8c-1.3-0.9-2.7-1.8-3.9-2.9c-3.5-3.1-4.4-10-8.8-10.2c-5.1-0.2-10.4,3-15.5,4.7
			c-6.9,3.6-14.5,4-21.9,5.1l-0.7-0.4c-1.6-2-3.2-1.9-4.8-0.1c-0.6,0-1.1,0-1.7,0.1C1044.6,541.8,1047.3,540.4,1048.1,538z"/>
		<path class="st9" d="M802.7,743c0.6-10.1-3.5-20.2,0.2-30.3c0,0-0.1,0.1-0.1,0.1c2.5,9.7,2.4,19.7,3.3,29.7
			c1.9,22.6,4.7,45.1,5.1,67.8l0.1-0.1c-1.7-0.5-2.9-1.4-3.1-3.3c-0.2-2.2-0.3-4.5-0.5-6.7c0-3.5,0.6-7-0.9-10.4
			c-0.3-2.7-0.5-5.4-0.8-8.1c0.1-2.9,0.5-5.9-0.7-8.8C804.5,762.9,803.6,753,802.7,743z"/>
		<path class="st1" d="M735.9,714.5c10.3,0,13.3,3.2,9.8,10.4c-1.5,3-2.8,5.6-6.4,2c-3-3-5.7,4.3-8.7,0.5c-2.2-2.8-7.6-4.2-5.6-9.1
			C726.9,713.5,731.7,714.5,735.9,714.5z"/>
		<path class="st1" d="M626.1,491.6c-0.8,1.3-1.5,2.9-2.6,4c-3.2,3.4-16.4,1.6-19-2.5c-0.4-0.7-1.1-1.6-0.9-2.2
			c2.1-6.7,7.9-4.7,12.6-5C620.5,485.8,624.6,486.2,626.1,491.6z"/>
		<path class="st9" d="M1119.7,397.2c-4.9-6.1-2-13.7-4-20.4c-2.3-7.8-3.3-16.1-7-23.5c-0.6-2.2-1.2-4.5-3.7-5.5
			c0-3.7,0.8-7.1,3.4-9.9c0.1,0.7,0.2,1.5,0.3,2.2c0.2,3.4,1.8,3.3,4,1.6c1.4-1.1,2.8-2.3,4.3-3.4c0,0,0.4,0.3,0.4,0.3
			c-9.2,7.6-4.8,16.2-2.4,25.1C1117.8,374.6,1120.7,385.7,1119.7,397.2z"/>
		<path class="st9" d="M1105.1,440.7c4,5.1,4.2,11.9,7.3,17.6c2.4-1.7,0.7-5.5,4-6.2c-2,9.3-1.7,18.7-0.8,28.1
			C1112,467.1,1105.1,454.8,1105.1,440.7z"/>
		<path class="st1" d="M534.2,529.2c-2.3,3.5-2.3,9.4-6.9,9.6c-3.8,0.2-9-4.9-8.6-7.2c0.6-3.6,4.7-7.6,8.3-9.2
			C529,521.6,532.2,526.1,534.2,529.2z"/>
		<path class="st11" d="M791,324.9c0,2.4-0.1,4.7-0.1,7.1c-5.4-5.5-5.6-13.7-9.7-19.9c-0.1-0.8-0.1-1.7-0.2-2.5
			c-0.6-2.2-1.2-4.3-1.8-6.5c-1.1-6.8-2.1-13.6-3.2-20.4c1.5,0.1,2.9,0.6,3.1,2.2c1.1,12,6,23,8.8,34.6c-0.2,2.1,0.8,3.4,2.9,3.7
			C790.8,323.8,790.9,324.3,791,324.9z"/>
		<path class="st11" d="M841.3,363.4c14.4-0.6,29,1.4,43.4-1.6c1.9-0.4,3.9-0.4,5.5,1.3c-16.4,2.5-16.4,2.5-16.7,13.7
			c-0.6,0-1.1,0.1-1.7,0.1c-0.2-11.8-0.2-11.8-11.3-11.9c-17.8-0.1-17.8-0.1-17.1,18.6c0,0.5-0.1,1.1-0.2,1.6
			c-1.3,0-2.5-0.4-3.2-1.7c0.1-0.6,0.2-1.2,0.3-1.8C843,375.8,840.9,369.5,841.3,363.4z"/>
		<path class="st10" d="M962.4,248.9c-3,6.3-2.8,13.3-4.9,20c0-12.2-0.2-24.4,0.1-36.6c0.1-4.7,4.5-5.7,8.2-6.7
			c-7.8,6.2-7.1,13.8-3.6,21.8C962.3,247.9,962.4,248.4,962.4,248.9z"/>
		<path class="st9" d="M1115.9,516.7c3.6-10.3-1.4-20.7,0.2-31c3.8,9.5,4.2,19.4,3,29.4C1118.9,516.4,1117.5,517.3,1115.9,516.7z"/>
		<path class="st4" d="M1036.4,211c-0.4,0.7-0.7,2-1.1,2.1c-11.1,0.3-21.1,6.2-32.2,6.1C1013.6,214,1024.8,211.6,1036.4,211z"/>
		<path class="st1" d="M735.2,597.3c-1,2.5-1.6,5.7-5,6c-3.2,0.3-5.7-1.8-5.6-4.8c0.1-3,2.7-4.7,5.8-4.8
			C732.9,593.5,734.8,594.4,735.2,597.3z"/>
		<path class="st9" d="M1116.8,449c-0.7-8.7-1.1-17.3,3.1-25.4C1120.7,432.4,1119.7,440.8,1116.8,449z"/>
		<path class="st5" d="M1138.7,622.1c-0.7-0.1-1.5-0.1-2.2-0.2c-3.6-8.2-8.5-15.9-9.4-25C1133.8,603.9,1135.2,613.5,1138.7,622.1z"
			/>
		<path class="st1" d="M728.9,809c2.7,0.7,4.6,2.4,4.8,5.1c0.3,3.1-1.9,4.3-4.8,4.4c-2.9,0.1-4-2.1-4.3-4.2
			C724.1,811.4,726.3,809.9,728.9,809z"/>
		<path class="st9" d="M768.9,303.2c-4.9-6-6.4-12.3-1.9-19.3c0,0,0.6,0.5,0.6,0.5c-0.5,6.3,0.3,12.4,1.7,18.5L768.9,303.2z"/>
		<path class="st9" d="M839.8,383.6c0.7,1.3,1.9,1.6,3.2,1.7c0.6,3.4,1.1,6.8,1.7,10.1c-4.4-1-3.6-11.2-11.3-6.4
			c-0.4-0.4-0.8-0.9-1.2-1.4C834.1,385,836.3,383.2,839.8,383.6z"/>
		<path class="st9" d="M781,309.6c0.1,0.8,0.1,1.7,0.2,2.5c-6.7,0.7-10.5-2.7-12.3-8.9c0,0,0.4-0.3,0.4-0.3
			C773.3,304.8,775.2,310.7,781,309.6z"/>
		<path class="st4" d="M992.9,223.5c-2.2,4.6-6.5,5.4-10.9,5.9C985.1,226.5,988.6,224.4,992.9,223.5z"/>
		<path class="st1" d="M806.8,789.7c1.5,3.4,1,6.9,0.9,10.4C802.3,797.1,803.5,793.5,806.8,789.7z"/>
		<path class="st9" d="M841.3,363.4c-0.5,6.1,1.6,12.4-1.2,18.4c-0.2-6.1-0.4-12.1-0.6-18.2C840.1,363.5,840.7,363.5,841.3,363.4z"
			/>
		<path class="st9" d="M1095.2,230.6c-3.8-1-6.5-3.3-8.2-6.9C1091.1,224.4,1094.2,226.3,1095.2,230.6z"/>
		<path class="st1" d="M752.1,596c-0.1,1.3-0.9,2.2-2,1.9c-1.5-0.4-3.5-0.7-3.4-2.9c0.1-1.4,1.5-1.4,2.6-1.4
			C750.8,593.7,751.9,594.3,752.1,596z"/>
		<path class="st4" d="M975.7,233.8c-0.5,4.3-2.4,6.9-7.2,6.3C970.2,237.2,972.5,235,975.7,233.8z"/>
		<path class="st1" d="M805.3,772.9c1.2,2.8,0.9,5.8,0.7,8.8C800.8,779.1,802.1,776.1,805.3,772.9z"/>
		<path class="st1" d="M759.2,872.3c-2.2,0.1-4.5,0.1-6.7,0.2c0.2-2.4,0.7-4.7,3.6-4.5C758.4,868.1,759,870.2,759.2,872.3z"/>
		<path class="st10" d="M970.9,220.8c0.6-2.6,1.8-4.6,4.4-5.6C975.1,218,973.9,220.2,970.9,220.8z"/>
		<path class="st4" d="M1001.2,219.6c-1,3.4-3.9,2.8-6.4,2.9C996.6,220.6,998.8,219.9,1001.2,219.6z"/>
		<path class="st1" d="M690.3,631.8c-0.7,0.5-1.3,1.3-1.8,1.2c-0.5-0.1-1.2-1-1.2-1.6c-0.1-1.1,0.6-2.1,1.9-1.7
			C689.6,629.8,689.8,630.9,690.3,631.8z"/>
		<path class="st9" d="M1102.1,238.9c-2.3-0.8-3.5-2.4-3.6-4.8C1101.4,234.3,1102.1,236.3,1102.1,238.9z"/>
		<path class="st10" d="M769.2,277.7c0.6,0.4,1.1,0.9,1.7,1.3c-0.1,0.6-0.2,1.2-0.3,1.8c-0.6,0.6-1.2,1.1-1.8,1.7
			c-0.3-0.1-0.6-0.1-0.8,0.1c-0.1-1.6-0.2-3.2-0.3-4.8C768.2,277.8,768.7,277.7,769.2,277.7z"/>
		<path class="st5" d="M1127.1,596.9c-1.8-1.9-4.5-3.5-1.7-6.6C1126.5,592.3,1127.5,594.4,1127.1,596.9z"/>
		<path class="st9" d="M1081.9,220.3c-2.2-0.2-4-1.2-5.3-3C1079,217.1,1081,217.8,1081.9,220.3z"/>
		<path class="st4" d="M979.4,231.1c-0.3,2.2-1.6,3.1-3.8,2.8C976.3,232.2,977.5,231.2,979.4,231.1z"/>
		<path class="st10" d="M978.3,209.5c-0.5-1.7,0.1-3,1.3-4.2C980,206.9,979.8,208.4,978.3,209.5z"/>
		<path class="st11" d="M834.8,363.2c1.8-1.9,3.5-1.9,4.9,0.4C838.1,363.4,836.5,363.3,834.8,363.2z"/>
		<path class="st4" d="M962.4,248.9c0-0.5-0.1-1-0.2-1.5c0.6-0.6,1.2-1.2,1.8-1.8C963.3,246.6,965.9,249.2,962.4,248.9z"/>
		<path class="st9" d="M1207.9,860.6c-2.4,2-2.9-0.1-3.6-1.7C1206.1,858.3,1206.9,859.6,1207.9,860.6z"/>
		<path class="st9" d="M1098.5,234.1c-1.9-0.4-3.1-1.5-3.3-3.5C1097.5,230.7,1098.6,231.8,1098.5,234.1z"/>
		<path class="st10" d="M975.4,215.1c-0.3-1.5,0.3-2.5,1.7-3.1C977.5,213.5,977,214.6,975.4,215.1z"/>
		<path class="st4" d="M968.5,240.2c0.3,1.8-0.8,2.3-2.3,2.5C966.4,241.3,967.3,240.6,968.5,240.2z"/>
		<path class="st10" d="M980.6,202.2c-0.1-0.4-0.3-0.9-0.3-1.3c0-0.2,0.3-0.3,0.5-0.5C980.7,201,980.7,201.6,980.6,202.2z"/>
		<path class="st9" d="M780.6,424.8c-0.4,0.8-0.8,1.6-1.3,2.5C779.8,426.4,780.2,425.6,780.6,424.8z"/>
		<path class="st10" d="M969.3,222.5c-0.1-1.2,0.5-1.8,1.7-1.8C971.1,221.9,970.5,222.6,969.3,222.5z"/>
		<path class="st9" d="M1085.1,222.3c-0.7-0.5-1.3-0.9-2-1.4C1084.2,220.7,1084.9,221.2,1085.1,222.3z"/>
		<path class="st10" d="M967.5,224.1c0-1.2,0.6-1.7,1.8-1.6C969.4,223.7,968.8,224.3,967.5,224.1z"/>
		<path class="st10" d="M965.7,225.6c0-1.2,0.7-1.7,1.9-1.6C967.5,225.3,966.9,225.8,965.7,225.6z"/>
		<path class="st4" d="M966,243c-0.4,0.4-0.7,0.8-1.1,1.2C965.2,243.8,965.6,243.4,966,243z"/>
		<path class="st4" d="M769.2,277.7c-0.5,0.1-1.1,0.1-1.6,0.1c0-0.6,0-1.2,0-1.8C768.2,276.5,768.7,277.1,769.2,277.7z"/>
		<path class="st9" d="M767.9,282.5c0.3-0.2,0.5-0.2,0.8-0.1c-0.4,0.7-0.8,1.3-1.2,2c0,0-0.5-0.4-0.6-0.5
			C767.3,283.5,767.6,283,767.9,282.5z"/>
		<path class="st4" d="M981,229.9c-0.4,0.3-0.8,0.6-1.3,1C980.2,230.6,980.6,230.2,981,229.9z"/>
		<path class="st13" d="M1044.8,544.6c0.6,0,1.1,0,1.7-0.1c1.6,0,3.2,0,4.8,0.1c0,0,0.7,0.4,0.7,0.4c0.3,2.2,0.6,4.4,0.9,6.6
			c-17.3,2.3-31.3-3.3-41.6-17.5c-4.6-6.4-7.8-4.8-10.6,1.5c-9.5,21.2-16.5,43.1-21.7,65.7c-11.9,52.4-12.8,105.6-11.2,158.8
			c0.7,23.5,3,47.1,5.9,70.6c2.3,18.5,2.6,37.2,3.8,55.8c0.2,3.1-0.2,6.1-3.2,9.2c-2.6-7.7-8-7-13.8-4.8c-4.9,1.9-10,3.5-14.7,5.9
			c-12,6.1-13.3,15.1-3.9,24.7c1.9,2,3.8,4.1,5.7,6.2c-16.1-1.6-31.6-6.1-47.2-10.1c-2-1.8-4.1-3.4-3.4-6.6
			c16.8-7.9,26.3-22.8,34.8-38c4.2-7.6,10.5-14.8,10.6-24.1c0.2-22.9-0.1-45.7-0.1-68.6c-0.1-3.3,1-6.7-0.9-9.9
			c-0.1-1.3-0.3-2.6-0.4-3.9c2.5-0.3,3.1-2,3.1-4.2c-0.4-25.7,5.3-50.9,6.7-76.5c5.9-42.1,16.2-82.9,31.9-122.5
			c7.5-18.9,18.7-35.2,32-50.4c1.6-1.8,3.3-1.8,5.2-1.9c4.5,8.9,13.3,11.1,21.7,13.9c-0.2,2.2,0.7,4.8-1.7,6.5
			c-2.3,1.7-2.1,3.4,0,5.1c0,0.5,0,1-0.1,1.5C1041.4,540.2,1043.1,542.4,1044.8,544.6z"/>
		<path class="st9" d="M1261.3,897.5c-0.3-1.6-0.6-3.1-1-4.7c7.4,0.7,4.7,5.9,3.5,9.4c-2.3,7.1-8.6,10.4-15.2,12
			c-12.2,3-23.7,7.3-35.3,12.3c-15,6.5-31.1,6.7-46.8,3c-7.2-1.7-13.2,1.1-19.4,2.7c-17.5,4.7-35.2,5.7-53,2.8
			c-3.6-0.6-6.6,0.6-9.8,1.3c-18.6,3.7-36.1,1.3-52.2-9c-4.6-2.9-8.8-3.4-12.8,0.6c-12.9,12.9-27.4,10.2-40.8,2.5
			c-9.8-5.7-17.7-6.4-26.3,0.8c-0.5-0.9-1-1.9-1.5-2.8c9-7.7,17.8-7.9,28-1.2c5.6,3.7,12.4,6,19.8,6.1c6.2,0,11.4-1.2,15.9-5.7
			c5.9-5.9,12.6-8,20.2-2.8c15.5,10.6,32.6,12,50.4,8c3.9-0.9,7.5-0.6,11.4-0.2c18.3,1.6,36.6,1.6,54.9-4.6
			c-2.8-2.6-7.2-1.2-8.6-5.7c5.5-1.3,10.4,0.8,15.2,2.1c22.6,6.4,44.6,6.3,65.5-5.8c6.2-3.6,13.5-3.4,20-5.7
			C1251.1,909.7,1260.1,908.1,1261.3,897.5z"/>
		<path class="st11" d="M950.7,928.2c0.5,0.9,1,1.9,1.5,2.8c-1.1,0-2.2,0-3.3,0.1c-0.8-0.4-1.6-0.7-2.4-1.1
			c-16-1.1-31.7-3.6-46.4-10.4c0-0.7,0-1.3,0-2c15.6,4,31.1,8.5,47.2,10.1C948.5,927.8,949.6,928,950.7,928.2z"/>
		<path class="st11" d="M1052.9,551.6c-0.3-2.2-0.6-4.4-0.9-6.6c7.5-1.1,15.1-1.5,21.9-5.1c1.3,3.8-2.6,3.8-4.1,5.2
			c-3.1,2.8-7.8,3.2-10,8C1058.3,556.1,1054.5,555.7,1052.9,551.6z"/>
		<path class="st7" d="M1108.6,563.3c-0.4-0.6-0.8-1.2-1.3-1.7C1109.3,561,1108.1,562.7,1108.6,563.3
			C1108.5,563.3,1108.6,563.3,1108.6,563.3z"/>
		<path class="st14" d="M900.4,659.7c1.4-0.1,2.8-0.2,4.1-0.4c4.5-0.7,7.1-0.2,5.9,5.7c-0.9,4.3-0.2,8.9,0.8,13.4
			c3.2-2.9,2.5-6.6,2.4-9.9c-0.2-7.3,2.3-11.1,10.1-9.8c-4.5,8.4-6,16.7-2.1,26.2c2.5,6.2,6.5,6.5,11.1,5.7
			c5.4-0.9,7.8-5.2,7.3-10.5c-1.3-12.8-1.4-12.8,10.9-17.8c-0.8,7.1-1.5,14.2-2.3,21.3c-0.5,1.6-1.2,3.1-1.4,4.7
			c-2.2,18.2-4.3,36.4-6.4,54.6c-6.2-5.9-13.4-6.7-21.6-5.2c-4.1,0.8-7.4,4-11.8,3.5c0.4-5,0.9-10.1,1.3-15.1c1.5,0.7,3,1.3,4.5,2
			c7.4,3.5,12.3,1.5,13.7-6.8c0.8-4.4,3.8-4.9,6.8-6.1c3-1.2,6.1-3.3,4.7-6.7c-1.6-4,0.6-9.6-4.3-12c-3.6-1.7-6.7,0.1-9.8,2.7
			c-3.9,3.4-8.3,6.3-13.8,6.8c-0.4-7.3,3.3-14.7-0.9-21.8c0.5,11.6-5.2,22.9-0.9,34.6c-0.2,1-0.3,1.9-0.5,2.9
			c-4.4,5.5-5.7,29.1-2,36c0.7,0.9,1.8,1.7,1.9,2.6c1.5,16.7,0.8,33.5,0.5,50.2c-0.1,4.9-0.6,11,4.5,12.2c5.4,1.3,7.1,3.9,8.4,8.3
			c0.9,3,3,4.7,6.3,4.2c3.5-0.6,4.1-3.2,4.1-6.3c0-4.2-0.1-8.4,0.1-12.6c0.2-4.1,0.9-8,6.4-7.9c0,14.5,0,29.1,0,43.6
			c-13.6-0.3-27,2.8-40.7,1.7c2.5-30.8,5-61.6,7.5-92.4c-0.9-0.1-1.7-0.1-2.6-0.2c-1.2,12.9-2.7,25.8-3.5,38.7
			c-1.4,23.1-5.2,45.9-5.6,69.1c0,4.3-1.6,6.2-6.1,4.6c-6.1-2.1-12-1.5-17.6,1.9c-0.8,0.5-1.6,1-2.4,1.5c-1.4,0-2.7-0.1-4.1-0.1
			c0-0.4,0-0.8-0.2-1.2c3.5-2.4,3.3-6,3.4-9.7c0.7-26.2-0.1-52.4,1.2-78.6c1.8-35.9,0.1-71.9,1.9-107.9c0.4-7.9,2.3-10.9,10.3-12.5
			C886.9,665.6,895.2,666.4,900.4,659.7z"/>
		<path class="st1" d="M851.7,857.2c-0.1-63.4-0.2-126.7-0.2-190.1c0-2.2-1.2-5.4,2.3-6.3c4.6-1.2,4.5,2.9,5.8,5.4
			c-0.1,34.4-0.1,68.7-0.2,103.1c-0.1,29.3-0.2,58.6-0.4,88C856.7,857.2,854.2,857.2,851.7,857.2z"/>
		<path class="st11" d="M813.4,862.2c-0.3-6.7-0.5-13.4-0.8-20.1c0.6,0,1.2,0,1.7,0c1,9.6,2.1,19.1,2.9,28.7
			c0.4,4.7,2.4,4.9,5.8,2.9c9.6-2.6,18.3-0.4,26.2,5.2c4.4,12.4,2.2,15.9-11.3,16.7c-7,0.4-13.9,0.7-20.8-1.4
			c-6.1-1.9-7.6-5.9-4.9-10.9C816.1,876.3,814.8,869.4,813.4,862.2z"/>
		<path class="st11" d="M863.5,877c1.4,0,2.7,0.1,4.1,0.1c0.8-0.5,1.6-1,2.4-1.5c5.6-3.4,11.5-4,17.6-1.9c4.6,1.6,6.1-0.3,6.1-4.6
			c0.6,0,1.2,0,1.8,0c-0.6,4.6,0.6,8.3,3.5,12.3c4.8,6.7,3.1,10.4-4.8,12.9c-7.4,2.4-15,2.1-22.4,1.1c-12-1.7-13.5-5-8.6-16.1
			C863.3,878.4,863.4,877.7,863.5,877z"/>
		<path class="st11" d="M938.6,852.2c0-14.5,0-29.1,0-43.6c0.2-2.2,0.3-4.5,0.5-6.7c3.9-6.8-0.9-14.8,2.9-21.6
			c0.1,22.9,0.3,45.7,0.1,68.6c-0.1,9.3-6.3,16.5-10.6,24.1c-8.5,15.3-18,30.2-34.8,38c-0.6-0.7-1.2-1.3-1.9-2
			C917.2,895.9,928.1,874.2,938.6,852.2z"/>
		<path class="st0" d="M794.5,864.1c-2.2-2.6-5.4-2.5-7.6-1c-6.1,4-8.9-0.8-11.4-4.3c-2.7-3.8-1.5-8.2,2.1-11.2
			c4.2-3.4,8.4-1.9,12.1,1.2c1.4,1.2,2.1,3.4,4.4,3.5c8.6,0.2,9.5,5,7,11.8C798.9,864,796.7,864,794.5,864.1z"/>
		<path class="st11" d="M859.1,857.2c0.1-29.3,0.3-58.6,0.4-88c0.1-34.4,0.1-68.7,0.2-103.1c0.6-1.2,1.2-2.5,1.8-3.7
			c0.1,71,0.1,142.1,0.2,213.1c-0.6,0.7-1.2,1.3-1.8,2c0,0,0,0,0,0c0-0.7-0.1-1.4-0.1-2.1C859.5,869.3,859.3,863.2,859.1,857.2z"/>
		<path class="st9" d="M895.5,869.1c-0.6,0-1.2,0-1.8,0c0.4-23.1,4.2-46,5.6-69.1c0.8-12.9,2.3-25.8,3.5-38.7
			c0.9,0.1,1.7,0.1,2.6,0.2c-2.5,30.8-5,61.6-7.5,92.4C895.5,858.7,898.6,864.4,895.5,869.1z"/>
		<path class="st14" d="M849.2,879c-8-5.6-16.6-7.8-26.2-5.2c0.3-3.2,2.6-3.1,4.9-3.1c6.8-0.2,13.6-0.1,20.2,1.7
			c0.3,2.2,0.7,4.4,1,6.6C849.1,879,849.2,879,849.2,879z"/>
		<path class="st9" d="M895,909c0.6,0.7,1.2,1.3,1.9,2c-0.7,3.2,1.5,4.8,3.4,6.6c0,0.7,0,1.3,0,2C890.9,916.1,890,914.5,895,909z"/>
		<path class="st9" d="M859.9,877.5c0.6-0.7,1.2-1.3,1.8-2c0,0,0.8,0.2,0.8,0.2l0.8,0c0.1,0.4,0.2,0.8,0.2,1.2
			c-0.1,0.7-0.1,1.5-0.2,2.2C861.9,879.1,860.5,879,859.9,877.5z"/>
		<path class="st9" d="M859.7,875.4c0,0.7,0.1,1.4,0.1,2.1C858.7,876.9,858.9,876.1,859.7,875.4z"/>
		<path class="st9" d="M946.6,930c0.8,0.4,1.6,0.7,2.4,1.1C948.2,930.7,947.4,930.3,946.6,930z"/>
		<path class="st0" d="M764.2,840.5c0.1,3.7-1,7.5-4.9,7.5c-4.5,0-5.3-4.1-5.2-8c0.1-3.7,1.3-7.3,5.3-7.1
			C763.2,833.1,764.3,836.8,764.2,840.5z"/>
		<path class="st9" d="M814.3,842.2c-0.6,0-1.2,0-1.7,0c-1.8-10.6-4.6-21.2-1.3-32c0,0-0.1,0.1-0.1,0.1
			C813.5,820.8,814.2,831.5,814.3,842.2z"/>
		<path class="st14" d="M873.5,376.8c0.3-11.2,0.3-11.2,16.7-13.7c2.3-0.6,4.6-1.2,6.8-1.8c2.2,0,4.1-0.5,5.1-2.7c0,0,0,0,0,0
			c2,0.3,3.8,0,5-1.8c0,0-0.1,0.1-0.1,0.1c0.9-0.2,1.8-0.5,1.8-1.7c0,0,0,0.1,0,0.1c3.9,0.1,6.4-2.1,8.3-5.2c0,0-0.1,0-0.1,0
			c0.6-0.6,1.2-1.2,1.8-1.7c1.7-1.6,3.3-3.2,5-4.8c1.9-1.3,3.6-2.7,3.5-5.3c0,0,0,0,0,0c2.3-0.9,3.2-2.8,3.4-5.1c0,0-0.1,0-0.1,0
			c2.3-1.7,3.2-4,3.1-6.8c1.3-3.8,2.5-7.7,3.8-11.5c1-0.1,1.9-0.3,2.9-0.4c3.9,1,6.8-1.6,10-3c3.9,15.2,6.6,30.8,13.7,45.1
			c0.6,2.2,1.2,4.4,1.9,6.5c-0.2,1.5,0.2,2.7,1.7,3.3l-0.4,0.2c0,0,0.4-0.2,0.4-0.2c2,9,7.4,16.3,13,23.7
			c-2.1-7.8-4.3-15.7-6.4-23.5c-0.1-1-0.3-2.1-0.4-3.1c0-9.9-0.1-19.7,0.2-29.6c0.2-6,2-1.2,3.1-0.3c2.6,20.3,12.8,35.1,31.8,43.4
			c1.3,1.6,3.1,1.9,5,1.9l0.2-0.2c0.7,1.7,2.2,1.6,3.7,1.8c1.7,1.4,3.8,1.7,5.9,1.6c3,2,9,1,7.4,7.6c-1.5,6.6,4.4,15.8-6.8,18.9
			c0,0,0.1-0.1,0.1-0.1c-2.4,0-5-0.9-6.8,1.7c0,0,0,0,0,0c-4.7-0.2-8.3,2.2-11.9,4.8c-8.9,3.8-13.8,10.4-15.6,20
			c-2.7,14.5-5,28.9-6.5,43.6c-0.6,6,1.4,13.2-4.2,18c-4.8,4.2-9.6,8.5-15.5,11c-1.2-10.8-6.7-20.2-9.4-30.5c-0.5-2-0.8-4.5-3.8-4.7
			c-0.7-3.8-1.4-7.6-2.1-11.5c0.3-2.5-0.9-4.2-3-5.3c-3.2-8.3-3.7-17.5-8.5-25.2c-0.2-1.1-0.3-2.1-0.5-3.2
			c-1-8.5-7.4-12.4-13.8-16.2c-13.9-10.7-27-22.8-45.5-25.2C873.5,384.1,873.6,380.4,873.5,376.8z"/>
		<path class="st5" d="M1108.4,337.9c-2.6,2.8-3.4,6.2-3.4,9.9c-3.3,5.5-6.7,11.1-10,16.6c-10.7,10.4-23,17.8-38.1,19.4
			c-2.4-0.1-4.8-0.1-7.2-0.2c-6.1,0-12.3-0.1-18.2-1.8c-5.1-3.2-11.1-3.7-16.7-5.2c-9.5-7.9-21.5-12.9-27.1-24.9
			c3,0.5,6,1.4,8.9,1.3c3.2-0.2,7.1-0.5,8.7-3.7c1.7-3.5-3.3-3.7-4.2-6.2c2.1-1.3,4.4-2.2,6.1-3.8c3.6-3.4,7.6-7,3.1-12.6
			c-4.1-9-13.6-11.7-22.9-6.4c-2.6,1.5-4.7,4.4-8.1,1.9c-0.9-1.7-1.8-3.3-2.7-5c0.4-1.7,0.9-3.5,1.3-5.2c10.6-3.8,21.3-2.7,32.2-1.1
			c-4.8-7-12.3-6.4-19.1-7.5c-0.4-3.7,2.2-5.3,4.7-7.3c24.4-19.1,52-27.7,83-27.2c8,0.1,12.8,2.9,17.2,9.2
			c6.6,9.7,7.8,21.3,12.6,31.5l0.5-0.2c0.1,3.7,0.2,7.3,0.4,11C1108.9,326.3,1108.7,332.1,1108.4,337.9z M1096.9,334.7l-0.1,0.2
			c3.1-3.1,1.7-8,5.8-11.5c-6.1,0.1-9.9-3.4-14.5-4.8c-10.4-3.2-19.1,2.8-18.3,12.9c-2.3,3.3-1.6,4.8,2.5,4.5c0,0-0.2-0.1-0.2-0.1
			c0.8,7.7,7.5,4.5,11.6,6.3c0.1,3.2-10.4,5.2-1,9.4c4.9,2.2,10.2,1.9,12.9-2.1c2.9-4.5-4.6-4.3-5.6-7.6c1.8-1.4,3.7-2.8,5.5-4.3
			C1095.9,336.7,1096.4,335.7,1096.9,334.7z M1099.9,311c-9-10-25-9.7-34.1,1.2C1078.1,308.8,1088.9,308.8,1099.9,311z
			 M1054.9,355.3c-9,3.8-18.2,4.1-29.6,0.9C1039,364.2,1044.6,363.9,1054.9,355.3z"/>
		<path class="st6" d="M977.8,312c-0.4,1.7-0.9,3.5-1.3,5.2c-3.8,5.9-3.4,12.8-4.8,19.4c-1.1,1.2-1,2.5-0.4,3.9c0,1.9,0,3.7,0,5.6
			c-0.3,3-0.7,5.9-1.3,11c-4.1-23.4-4.6-43.9,7.7-63.2c9.9-15.6,24.4-24.2,41.4-29c23.6-6.7,47.7-7.1,72-4c5.1,0.6,6.6,4.6,9.2,7.7
			c9,10.7,9.8,23.9,11.5,36.8c0.3,2.2-0.4,3.9-3,4.2c0,0-0.5,0.2-0.5,0.2c-0.3-14-4.5-26.8-11.7-38.7c-2.7-4.5-6.2-6.5-11.6-6.5
			c-12-0.1-24-0.1-35.9,1.8c-26.6,4.3-50.9,12.9-66.9,36.7C980.7,305.9,979.3,309,977.8,312z"/>
		<path class="st12" d="M1108.4,337.9c0.3-5.8,0.5-11.6,0.8-17.4c5.7,2.4,5.4-4.1,8.3-5.6c0.4,1.5,0.8,3,1.1,4.5
			c-2.4,2.2-1.5,5.1-1.8,7.7c-0.6,5.7-2.4,10.6-8.2,13C1108.6,339.3,1108.5,338.6,1108.4,337.9z"/>
		<path class="st10" d="M1091.3,242.5c-5.2-1-9.7-3.5-12.5-8.3c-0.7-1.2-0.1-2.9,1.7-3.1c6.5-1,11.5,2.6,15,7.1
			C1098.7,242.1,1094.2,242.1,1091.3,242.5z"/>
		<path class="st9" d="M971.7,336.5c1.3-6.5,1-13.5,4.8-19.4c0.9,1.7,1.8,3.3,2.7,5c-0.4,2.3,0.9,4,2,5.8c-0.8,0.6-1.6,1.2-2.3,1.8
			c-0.5,1.3-1,2.6-1.5,3.9c-1.2-0.9-3-5.7-3.1,0.3c-0.3,9.9-0.2,19.7-0.2,29.6c-2.8-5.5-0.9-11.8-2.7-17.4c0-1.9,0-3.7,0-5.6
			C971.4,339.1,971.6,337.8,971.7,336.5z"/>
		<path class="st9" d="M974.4,366.6c2.1,7.8,4.3,15.7,6.4,23.5c-5.6-7.4-11-14.6-13-23.7C970,365.5,972,373.5,974.4,366.6z"/>
		<path class="st10" d="M1078.8,242.6c3.6,0,6.1,1.4,7,4.1c0.8,2.4-1.7,2.4-3.2,2.2c-2.7-0.5-5.7-1.3-6.6-4.2
			C1075.3,242.3,1077.8,242.8,1078.8,242.6z"/>
		<path class="st6" d="M1071.5,215.6c-1.4,1.7-3.1,2.1-5.2,0.9C1067.9,214.8,1069.9,216.4,1071.5,215.6
			C1071.5,215.6,1071.5,215.6,1071.5,215.6z"/>
		<path class="st9" d="M967.8,366.4c-1.5-0.6-2-1.8-1.7-3.3C967.6,363.7,968.1,364.9,967.8,366.4z"/>
		<path class="st6" d="M1056.9,383.8c15.2-1.7,27.4-9,38.1-19.4c-0.2,1.9-0.2,3.9-0.8,5.7c-3.5,9.6-2.8,18.5,2,27.8
			c4.8,9.3,5.8,19.5,2.1,29.7c-2.3-1.8-4.5-3.6-6.8-5.4c-7.3-7.6-16.2-12-26.7-13.1c-3-1.8-8.3,0.6-9-5.2
			C1056.2,397.2,1056.5,390.5,1056.9,383.8z"/>
		<path class="st4" d="M1098.3,427.7c3.7-10.2,2.6-20.5-2.1-29.7c-4.8-9.3-5.5-18.2-2-27.8c0.6-1.8,0.5-3.8,0.8-5.7
			c3.3-5.5,6.7-11.1,10-16.6c2.5,1,3,3.3,3.7,5.5c-2.2,1.7-1.7,4.1-1.5,6.2c2.6,23.6,2.4,47.2-0.1,70.8c-0.3,2.8,0,5.7-3.4,6.9
			C1101.9,434,1100.1,430.8,1098.3,427.7z"/>
		<path class="st4" d="M1086.6,461c2.2,6.1,4.3,12.2,6.5,18.4c-0.8,6.4,6.4,12.2,1.3,18.9c0,0-0.4,0.4-0.4,0.4
			c-1.9-0.6-2.4,0.5-2.8,2c-0.4,0.1-0.7,0.3-1,0.5c-4.5,1-9.1,2-13.6,3c-1,0-2.1,0.1-3.1,0.1c0.3-5.6,0.5-11.2,0.8-16.8
			c0.1-1,0.2-2.1,0.4-3.1c1.7-0.7,2-2,1.4-3.6c0.2-1.1,0.3-2.1,0.5-3.2c1.6-0.1,1.5-0.9,0.8-2c0-1.2-0.1-2.5-0.1-3.7l0,0
			c2.6-0.3,2.2-2.5,2.8-4.2C1083.5,466.6,1081.3,460.2,1086.6,461z"/>
		<path class="st12" d="M1056.9,383.8c-0.4,6.7-0.7,13.4-1.1,20.1c-2.3,0.1-4.1-1.1-5.9-2.4c-5.8-4.3-11.1-4-15.4,2.2
			c-2.9-5.4-2.6-11.7-0.5-16.6c1.8-4.1,8-1.1,12.2-1.9c1.3-0.2,2.4-1,3.6-1.5C1052.1,383.7,1054.5,383.8,1056.9,383.8z"/>
		<path class="st12" d="M964.1,507.7c6-2.6,10.8-6.9,15.5-11c5.5-4.8,3.6-12,4.2-18c1.5-14.7,3.8-29.1,6.5-43.6
			c1.8-9.5,6.8-16.2,15.6-20c0.1,0.7,0.2,1.5,0.2,2.2c-16.7,13.4-15.5,33.3-18.4,51.6c-1.2,7.6-1.4,15.5-1.8,23.2
			c-0.2,3.5-2.4,5.5-4.6,7.6c-4.8,4.6-9.5,9.2-15.9,11.7C964.3,510.5,963.9,509.2,964.1,507.7z"/>
		<path class="st7" d="M1006.1,476.1c0-1.2,0-2.5,0-3.7c1.8-1.1,3.5-2.1,5.3-3.2c2.5-1.2,4.3-2.8,6-5.1c2.1-3,5.1-4.9,8.8-1.8
			c-4.1,5-2.4,10.5-1.4,15.9c-3.4-1.6-5.8-0.5-8.6,2.1c-3.2,2.9-4.1,7.7-8.3,9.7C1005.7,485.6,1011.6,480.1,1006.1,476.1z"/>
		<path class="st7" d="M964.1,507.7c-0.1,1.5,0.2,2.8,1.5,3.7c0.8,4.7,1.8,9.4,5,13.2c0.7,0.8,1.3,1.5,2,2.3c-0.2,3.1,0.1,6,1.1,9.1
			c1.1,3.2,1.1,6.7-2.6,8.9c-1.2,0-2.5,0-3.7,0c3.5-6.4,2-12.6-0.3-19c-6.1-17.6-11.8-35.3-16.3-53.3c2.9,0.2,3.2,2.7,3.8,4.7
			C957.4,487.5,962.8,497,964.1,507.7z"/>
		<path class="st11" d="M1058.1,523c-4.6-0.7-9.1,0.7-13.5,1.4c-0.5-2.1-1.1-4.1-1.6-6.2c-2.9-5.7-5.8-11.4-8.6-17.1
			c0.8-0.6,1.5-1.3,2.3-1.9c1.6,1.2,3.2,2.4,4.7,3.6c0.5,0.5-0.7,2.2,1.2,1.8c-0.4-0.6-0.8-1.2-1.2-1.8c-0.7-3.6-1.4-7.1-2.1-10.7
			c0.8-3.4-0.2-6.7-1-10c0.9,0.1,1.7,0.2,2.6,0.2c0.1,6.3,1.4,12.4,3.3,18.5c0.8,2.4,1.6,3.3,3.9,1.9c0.4,0,0.8,0,1.2-0.1
			c-0.8,4.1-1.6,8.2-2.3,12.2c-0.9,5.2,2,4,4.9,3C1053,520.7,1056.2,521.1,1058.1,523L1058.1,523z"/>
		<path class="st9" d="M1004.3,447.3c5-3.2,11.1-5.9,4.5-13.3c-1.7-1.9-2.5-6.3,0.3-7.3c3.6-1.2,3.6,3.2,4.4,5.6
			c0.8,2.3,1.1,4.8,1.7,7.6c3.6-0.4,5-5.9,9.3-4c0,1.6,0.1,3.2,0.1,4.8c-4.5,2.2-2.9,6.5-3.4,10.1c-5.6,0-11.2,0-16.8,0
			C1004.4,449.6,1004.3,448.4,1004.3,447.3z"/>
		<path class="st12" d="M972.6,526.9c-0.7-0.8-1.3-1.5-2-2.3c12-8,23.6-16.6,33.6-27.2c0.5,1.2,1.1,2.4,1.6,3.6
			c0.4,2.4-0.4,3.9-2.3,5.7C994.4,515.4,983,520.4,972.6,526.9z"/>
		<path class="st12" d="M1094.3,498.2c5.1-6.7-2-12.5-1.3-18.9c6.7,7.7,8.8,17.5,11.9,26.8c0.5,1.6-0.5,3.5-2.2,4.1
			c-6.8,2.5-12.2,7.9-19.5,9.2c-0.5-1.1-1.1-2.2-1.6-3.3c6.5-0.4,10.9-5.2,16.3-7.8c2.5-1.1,2.5-3.6,1.8-5.8
			C1099,500.1,1098.3,497,1094.3,498.2z"/>
		<path class="st12" d="M1024.6,440.7c0-1.6-0.1-3.2-0.1-4.8c8.8-2.2,17.6-4.2,26.8-1.9c3,0.7,6.1,1.1,7.2,4.6c-0.7,0.7-1.3,1.3-2,2
			c-1.5,0-3.1,0.1-4.6,0.1c-0.8-5.3-2.4-1.1-3.8-0.3C1040.2,437.5,1032.4,439,1024.6,440.7z"/>
		<path class="st11" d="M1081.7,516.2c0.5,1.1,1.1,2.2,1.6,3.3c-4.1,3.9-9.2,6-14.1,8.7c-3.2,1.7-5.8,1.6-7.6-1.9l0,0
			c5.8,0.9,9.9-2.8,14.3-5.5c2.3-1.5,3-3.4,0.8-5.4c-4.7-4.2-5.2-10.1-6.6-15.7c3-3.5-0.8-9.4,4.2-12.3c-0.3,5.6-0.5,11.2-0.8,16.8
			C1074.7,509.2,1079.4,512,1081.7,516.2z"/>
		<path class="st10" d="M1043,518.2c0.5,2.1,1.1,4.1,1.6,6.2c-1.1,0.2-2.1,0.4-3.2,0.6c-8.4-2.8-17.2-5-21.7-13.9c0-1-0.1-2-0.1-3
			C1026.8,512.9,1034.9,515.5,1043,518.2z"/>
		<path class="st11" d="M1056.5,440.6c0.7-0.7,1.3-1.3,2-2c12.3,3.8,25.5,6.5,28.1,22.4c-5.3-0.8-3.1,5.6-6.5,6.6
			c0.1-1.6-0.3-3.5,0.3-4.9c3.2-7,0.8-10.8-5.8-14.4C1068.7,445.2,1062.5,443.2,1056.5,440.6z"/>
		<path class="st12" d="M1064.8,409.1c10.5,1.1,19.4,5.5,26.7,13.1c-2.9,0.7-5.6,1.5-8.2-1.5
			C1078.4,415.1,1069.4,415.6,1064.8,409.1z"/>
		<path class="st11" d="M1004.3,447.3c0,1.1,0.1,2.3,0.1,3.4c-1.1,7.5,4.9,12.3,7,18.5c-1.8,1.1-3.5,2.1-5.3,3.2
			c0.5-5.4-3.4-9.3-5.1-13.9C999.2,453.7,999.3,449.9,1004.3,447.3z"/>
		<path class="st9" d="M1049.7,383.6c-1.2,0.5-2.4,1.3-3.6,1.5c-4.2,0.8-10.4-2.1-12.2,1.9c-2.1,4.8-2.4,11.1,0.5,16.6
			c-0.6,7.1-5.9,4.7-9.9,5.1c11.2-3.1,5.3-12.3,6.8-18.9c1.6-6.6-4.4-5.6-7.4-7.6c2.5-0.1,5.1-0.3,7.6-0.4
			C1037.4,383.5,1043.6,383.7,1049.7,383.6z"/>
		<path class="st11" d="M1005.8,501.1c-0.5-1.2-1.1-2.4-1.6-3.6c0.7-7.1,1.3-14.3,2-21.4c5.5,4-0.4,9.5,1.7,13.9
			c0,2.9-0.1,5.8-0.1,8.7C1007.1,499.5,1006.4,500.3,1005.8,501.1z"/>
		<path class="st9" d="M1006.2,417.3c-0.1-0.7-0.2-1.5-0.2-2.2c3.6-2.6,7.2-4.9,11.9-4.8C1014.5,413.7,1010.4,415.5,1006.2,417.3z"
			/>
		<path class="st12" d="M1044.8,544.6c-1.7-2.2-3.4-4.4-5.1-6.6c2.8,0,5.6,0,8.4,0C1047.3,540.4,1044.6,541.8,1044.8,544.6z"/>
		<path class="st12" d="M1039.8,536.5c-2.1-1.7-2.3-3.4,0-5.1C1040.1,533.1,1042.4,534.8,1039.8,536.5z"/>
		<path class="st9" d="M1017.8,410.4c1.8-2.6,4.4-1.7,6.8-1.7C1022.9,411.4,1020.2,410.3,1017.8,410.4z"/>
		<path class="st11" d="M1061.6,526.3c-2.1-0.1-3.3-1.1-3.4-3.3c0,0,0,0,0,0C1059.3,524.1,1060.4,525.2,1061.6,526.3L1061.6,526.3z"
			/>
		<path class="st5" d="M950.5,311.5c-3.2,1.4-6.1,4-10,3c0.3-2.8-0.8-5.9,1.6-8.4c10.6-4.8,11.4-14.7,1.9-23.5
			c-2.9,10.7-5.8,21.3-8.7,32c-3.8,2.7-4.8,7.4-6.9,11.2c-12.1,21.3-31.1,31.8-54.5,33.9c-15.4,1.4-31.1,1.4-46.2-4.6
			c-13.8-5.5-24.3-14.4-32.8-26.2c-1.1-1.6-1.8-3.5-3.9-4.1c-0.1-0.5-0.2-1.1-0.3-1.6c0.4-2.3-0.8-3.4-2.9-3.7
			c-2.8-11.6-7.7-22.6-8.8-34.6c-0.1-1.6-1.6-2.1-3.1-2.2c-6,5.8-4.7,14.1,3.2,20.4c0.6,2.2,1.2,4.3,1.8,6.5
			c-5.8,1.1-7.6-4.8-11.7-6.7c-1.4-6.1-2.2-12.2-1.7-18.5c0.4-0.7,0.8-1.3,1.2-2c0.6-0.6,1.2-1.1,1.8-1.7c1.9,0.4,3.9,0.8,5.4-1.1
			c3.7-5.1,1.7-11.3,2.8-16.9c0.8-3.9,1.4-5.6,6-5.4c9.7,0.5,19.5,0.3,29.3,0.1c2.9-0.1,7.7,1.6,7.6-3.8c-0.1-4.4-4.2-4.5-7.7-4.6
			c-9.8-0.5-19.5,0.5-29,2.8c-2.7,0.6-5.7,2.8-5.3-2.6c6.6-2.5,5-9.5,7-14.2c2.7-6.1,5.2-6.8,10.6-3.9c4.1,2.1,8.1,4.5,12.8,5.7
			c37.9,10.1,76.2,10.1,114.8,5.9c4.3-0.5,6.4,1.5,9,4.3c3.9,4.1,2.8,10.8,8,14c0.2,1,0.4,2,0.5,3c-0.2,0.6-0.4,1.1-0.6,1.7
			c-0.7,0.8-0.6,1.5,0.2,2.1c0.4,0.5,0.9,1.1,1.3,1.6c2.2,3.8-3.3,11.3,5.7,12c1.5,1.1,3,2.2,4.5,3.2
			C959.3,294.4,954.3,302.9,950.5,311.5z M883.3,329.3c-10.1-0.9-20.3-2.7-30.4-2.5c-6.1,0.1-12.3-4-18.4-0.2
			c-2.2-1-4.2-3.2-7.3-1.8c14.7,18.7,36,21.9,54.9,8.5C883.3,332.4,886.5,331.7,883.3,329.3z M936.5,260c-6.1-5.2-31.3-9-38.3-5.9
			c-2,0.9-3.3,2-3.3,4.3c0,3.3,2.6,3.4,4.7,3.4c8.9,0.1,17.9,0.1,26.8-0.1C929.8,261.6,933.6,263.3,936.5,260z M801.5,306.3
			c-5.1-0.2-10.4,0.5-10.1,6.9c0.3,6.2,5.9,6.3,10.7,6.6c5.5,0.3,10.2-2.3,10.2-7.5C812.3,305.9,806.3,306.2,801.5,306.3z
			 M915.6,324.9c5.1-0.7,11.1-1.8,11-7.8c-0.1-6.2-6.2-5.7-11-5.8c-5.1-0.1-10.2,0.6-10,7C905.8,324.1,911.1,324.2,915.6,324.9z
			 M821.8,291.9c-10.5-12.2-21.1-12.1-27.9-0.5C802.9,287.4,811.5,287.7,821.8,291.9z M897.6,290.8c9-0.7,17.4,1,26.1,6.4
			C915.7,284.1,910.2,282.9,897.6,290.8z M857.1,313c2.1-0.5,5.7,1,5.6-2.8c-0.1-3-3.3-2.3-5.3-2.3c-2,0-5.1-0.8-5.3,2.3
			C851.9,313.6,855,312.7,857.1,313z"/>
		<path class="st4" d="M777.6,202.1c3.8-5.5,8.3-10.5,14.1-14c8.9-5.4,15.9-13.1,24-19.4c20.6-15.8,44.7-15.7,68.8-13.1
			c14.4,1.6,28.5,4.8,40.9,13.2c4.4,3,10,3.3,15.3,3.1c6.9,8.2,16.4,8.6,26,8.2c6.5-0.3,8,1.4,6.5,8.2c-3.2,14.5-11.7,24.2-24,31.3
			c-3.5,2-5.7,2.6-1.8,7.5c6.5,8.1,4.9,18.7,3.9,28.8c-0.6-1.4-1.3-2.9-1.8-4.3c-2.1-6.1-4.9-11.7-8.8-16.9
			c-5.4-7.2-11.9-1.6-17.8-2.3c-4.1-0.5-8.3-0.1-13.5-0.9c10.1-6.7,16.5-15.6,18-29.1c-24.8,33.9-57.8,28.9-92,22.8
			c4.7-5.7,13.4-5.8,15.8-13.4c-0.8-0.2-1.8-0.8-2.2-0.6c-14.6,8-30.3,8.3-45.5,3.9C794.4,212.5,784,210.7,777.6,202.1z
			 M854.9,208.8c0.2-0.1,0.4-0.1,0.6-0.3c0.1-0.1,0.1-0.3,0.1-0.4C855.4,208.4,855.1,208.6,854.9,208.8c-0.2,0.1-0.4,0.1-0.6,0.3
			c-0.1,0.1-0.1,0.3-0.1,0.4C854.4,209.3,854.7,209.1,854.9,208.8z M964.1,188.7c-7.4,2.2-14.9,4.2-22.6,5.2
			c-2.9,0.4-5.2,2.2-5.6,5.3c-0.3,2.1,1.4,2.6,3.2,2.9C948.4,204.2,960,198,964.1,188.7c0.2-0.2,0.5-0.5,0.7-0.7
			c-0.1,0-0.3,0-0.4,0.1C964.2,188.3,964.2,188.5,964.1,188.7z M807.3,189.4c60.8-22.4,53.3-20.1,112.1-15.6
			C887.1,155.7,830.3,163.8,807.3,189.4z M870.4,188.5c4.1-0.8,11.1,0.5,11.3-4.7c0.1-3.5-7.2-3.4-11.6-3.2
			c-4.2,0.2-10.7-1.3-10.7,4.2C859.4,188.6,866,188.2,870.4,188.5z"/>
		<path class="st12" d="M941.9,261.1c-5.2-3.2-4.1-9.9-8-14c-2.7-2.8-4.7-4.8-9-4.3c-38.6,4.2-76.9,4.1-114.8-5.9
			c-4.7-1.2-8.7-3.6-12.8-5.7c-5.4-2.8-7.9-2.2-10.6,3.9c-2.1,4.7-0.5,11.7-7,14.2c-0.2-0.6-0.4-1.2-0.6-1.8
			c3.5-8.7,4.8-18.2,9.3-26.9c20.2,14.4,43.7,14.6,66.6,16.3c23.7,1.8,47.5,2.4,71.3,0.7c7.5-0.5,10.8,2.2,12.3,8.8
			C939.7,251.3,942.3,255.9,941.9,261.1z"/>
		<path class="st4" d="M768.4,258.1c-5.8-16.2-5.2-41.9,8.5-53.3c1,4,2,8,3.1,12c2,6.8,0.1,11.9-7.3,12.7c-4.3,0.4-3.3,2.3-2.1,4.1
			C776.4,242.5,770.8,250.1,768.4,258.1z"/>
		<path class="st4" d="M779.1,247.5c0.2,0.6,0.4,1.2,0.6,1.8c-0.4,5.4,2.6,3.2,5.3,2.6c9.5-2.3,19.2-3.3,29-2.8
			c3.4,0.2,7.5,0.3,7.7,4.6c0.2,5.3-4.6,3.7-7.6,3.8c-9.8,0.2-19.5,0.4-29.3-0.1c-4.6-0.2-5.2,1.5-6,5.4c-1.1,5.6,0.9,11.8-2.8,16.9
			c-1.1-0.4-2.3-0.8-3.4-1.1c3.6-1.4,3.6-4.3,3.5-7.5C775.8,263,776.8,255.2,779.1,247.5z"/>
		<path class="st11" d="M953.5,284.7c-1.5-1.1-3-2.2-4.5-3.2c2-0.2,4.3-1.6,5.8,0.7C955.4,283.2,954.3,284.1,953.5,284.7z"/>
		<path class="st10" d="M956.4,274.1c1.1,1,0.9,3,0.4,3.2c-1.4,0.5-0.6-1.1-0.8-1.8C955.8,275.1,956.2,274.6,956.4,274.1z"/>
		<path class="st11" d="M941.8,265.7c0.2-0.6,0.4-1.1,0.6-1.7c1.6,1.6,1.6,3.5,0.9,5.4c-0.4-0.5-0.9-1.1-1.3-1.6
			C941.9,267.1,941.9,266.4,941.8,265.7z"/>
		<path class="st9" d="M772.5,278.5c1.1,0.4,2.3,0.8,3.4,1.1c-1.5,1.9-3.4,1.5-5.4,1.1c0.1-0.6,0.2-1.2,0.3-1.8
			C771.5,278.9,772,278.7,772.5,278.5z"/>
		<path class="st15" d="M784.4,422.2c4.7-3.7,9.2-7.7,14.1-11c2.1-1.4,4.4-4.4,7.8-2.4c-0.1,0.8-0.1,1.7-0.3,2.5
			c-2.3,10.8-8.8,22.3,5.3,30.3c2.5,1.4,1.7,4.4-0.8,5.3c-6.4,2.3-4.6,6.2-2.5,10.4c2.5,5,4.6,10.2,7.4,15
			c10,17.4,21.2,33.9,39.2,44.3c0.3,1.8,0,3.7,1.7,5c0,1-0.1,2-0.1,3.1c-2.2,2.7-1.3,5.9-1.3,8.9c0.5,28.4,1.1,56.7,1.6,85.1
			c0.2,9.2,0,18.4,0.1,27.6c0,2.7-1,5.7,1.6,7.8c5.9,1.6,2.2-3.3,3.3-5c0-1.1,0-2.3,0-3.4c-0.5-20.6-0.9-41.3-1.4-61.9
			c0.8,0.2,2,0.2,2.3,0.7c6.8,12.7,24.3,17.3,35.2,14.8c11.4-2.6,14.5-0.9,19.4,9.6c1,14.4-1.9,28.2-4.7,42.2
			c-0.6,2.8-1,4.6-4.4,4.9c-26.7,1.9-53.5,2.6-80.2,0.3c-11.1-0.9-22.3-0.3-33-3.9c-6.1-7.4-13.3-14.3-12-25.2
			c6.3-4.6,5.4-11.9,6.6-18.4c0.7-3.9,1.4-7.7,2.1-11.6c6.7,1,10.4,5.7,13.7,11c5.2,8.3,5.8,17.8,6.8,29.5c3.4-16.4-2.7-29-5.6-42.2
			c1.6,0,3.2-0.1,4.8-0.1c6.2,2.5,12.5,2.5,18.7-0.1c0.8-0.1,1.7-0.1,2.5-0.3c0.3-0.1,0.5-0.7,0.9-1.5c-9.1,0-18,0-26.9,0l0,0
			c-1.2-1.9-3.2-1.7-5-1.7l0,0c-0.6-0.5-1.1-1.1-1.7-1.6l0,0c-4.4-2.8,3.1-5.6,0-8.4c-0.6-3.4-1.8-6.5-4.9-8.5
			c-0.1-4.7-0.2-9.4,0.8-14.1c4.9-23.6-0.1-46.7-4.1-69.8c-0.3-16.6,0.5-33.2-1.9-49.7C788.5,433.6,787.1,427.7,784.4,422.2z
			 M813.3,589c-0.1,0.3-0.1,0.5-0.2,0.8c5.5,0,10.9,0,16.4,0c0-0.3,0-0.5,0-0.8C824.2,589,818.8,589,813.3,589z M836.7,594.2
			c5.8-2,4.3-4.7,3.9-7.1C840.4,589.3,839,591.1,836.7,594.2z M836.9,587.7c-0.5-0.3-0.9-0.6-1.3-0.7c-0.4,0-0.9,0.4-1.3,0.6
			c0.4,0.2,0.8,0.6,1.2,0.7C836,588.3,836.4,587.9,836.9,587.7z"/>
		<path class="st1" d="M814.3,842.2c-0.2-10.7-0.8-21.4-3.1-32c-0.4-22.7-3.2-45.2-5.1-67.8c-0.9-9.9-0.8-19.9-3.3-29.7
			c-1.6-6.4,0.1-12.9-1-19.5c-1.7-10.2-1.8-20.6-2.5-30.9c-0.1-1.8-0.6-4,1.8-5c0.5,0.9,1,1,1.7,0.3c3.3,0.5,6.6,1,10,1.5
			c3.9,7.5,12,5.9,18.2,7.7c7.9,2.2,10.7,6,10.6,14.1c-0.4,24-1.7,48.1,0.3,72c2.9,35.1-1.5,70.2,2.9,105.1c0.5,4.2-1.3,6.2-5.7,6
			c-5.1-0.3-9.2,1.6-11.2,6.7c-2.3,0-4.6-0.1-4.9,3.1c-3.4,2-5.4,1.8-5.8-2.9C816.4,861.3,815.3,851.8,814.3,842.2z"/>
		<path class="st2" d="M950.9,472.5c4.5,18.1,10.2,35.8,16.3,53.3c2.2,6.4,3.8,12.6,0.3,19c0,0,0,0,0,0c-4,0.8-7.9,1.8-8.4,6.8
			c-1.7,2.2-5.4,2.9-5,6.6c-7.9,6.1-15.7,12.2-23.6,18.3c-1.7,0.7-3.4,1.5-5,2.2c-0.5,0.4-1,0.9-1.4,1.3l-0.1,0.2
			c-1.6,0.5-3.2,1-4.8,1.5c-0.6,0.1-1.3,0.2-1.9,0.4c-1.6,0.5-3.2,0.9-4.9,1.4c-2.2-7-2.8-14.7-8.6-20.2c1.2-5.8,8.6-6.1,10.2-11.5
			c1.1-0.6,2.2-1.2,3.4-1.9c3.1-0.4,4.9-1.9,4.8-5.3c4.8,0.8,8-2.6,10.9-5.3c6.2-5.6,13.4-7.6,21.4-8.1c3-0.2,7,0.6,7.5-3.4
			c0.5-4-1.2-7.7-6.1-8.3c-3.2-6.2-8.6-3.7-13.4-3.4c0.1-3.2-1.7-5.8-2.8-8.7c-5.6-14.1-13.8-27.5-9.2-43.9
			c3.1-10.8,1.2-22.7,6.9-33c4.8,7.7,5.3,16.9,8.5,25.2c-0.2,2.5-0.1,4.7,3,5.3C949.5,464.8,950.2,468.7,950.9,472.5z"/>
		<path class="st15" d="M757.6,548.3c-5.4-18.6,1.9-35.5,6.7-52.9c5.8-20.9,11.1-42,16.7-63c0.3-1,0.7-2,1-3.1
			c3.4,1.1,3.3,4.1,3.6,6.2c2.9,18.5,3,37-0.6,55.6c-2.9,14.9-8.3,29.6-7.3,45.2c-2.4,4.7-1.7,9.7-1.1,14.7
			c1.5,12.6,6.2,24.6,6.7,37.5c0.2,6-0.5,12.7,2.7,18.6c-0.7,2.9-1.3,5.8-2.3,10.3C770.5,595,764.5,571.5,757.6,548.3z"/>
		<path class="st14" d="M923.5,635.5c-1.9-11.1-3-22.3-3.3-33.6c3.2-0.1,3.8,3,5.6,4.5c5.4,4.6,13.8,2.7,14.4-4
			c0.7-7.6,5.1-7.3,10.3-7.3c12.7,0,13.8-1.2,14.1-14.4c0.3-16.1,0.3-16.1,13.5-15.6c-11.1,28-18.9,57-25.3,86.4
			c-2.7-4-2.1-8.5-2.3-12.9c-0.2-6.6-3-9.6-10.2-10.1C933,627.9,928.2,630.9,923.5,635.5z"/>
		<path class="st3" d="M863.3,875.7l-0.8,0c0,0-0.8-0.2-0.8-0.2c-0.1-71-0.1-142.1-0.2-213.1c4.1-3.6,9-1.4,13.4-1.7
			c8.5-0.6,17-0.7,25.5-1c-5.2,6.7-13.5,5.9-20.4,7.3c-8,1.6-9.9,4.6-10.3,12.5c-1.7,36-0.1,72-1.9,107.9
			c-1.3,26.2-0.5,52.4-1.2,78.6C866.6,869.7,866.8,873.3,863.3,875.7z"/>
		<path class="st3" d="M827.9,870.7c2-5.1,6.1-6.9,11.2-6.7c4.4,0.2,6.2-1.7,5.7-6c-4.3-34.9,0-70.1-2.9-105.1
			c-2-23.8-0.7-48-0.3-72c0.1-8.2-2.7-11.9-10.6-14.1c-6.2-1.8-14.3-0.1-18.2-7.7c10.1-1.1,20,1.8,30.1,1.3c5.6-0.3,5.4,3.4,5.3,7.2
			c0,15.7,0,31.3,0,47c0,52.6-0.1,105.2-0.1,157.7C841.5,870.6,834.7,870.5,827.9,870.7z"/>
		<path class="st0" d="M978.2,565.2c-13.2-0.5-13.2-0.5-13.5,15.6c-0.3,13.2-1.4,14.4-14.1,14.4c-5.3,0-9.7-0.3-10.3,7.3
			c-0.6,6.7-9,8.6-14.4,4c-1.8-1.6-2.4-4.6-5.6-4.5c-0.2-1.6-0.3-3.2-0.5-4.7c6.3-4.5,3.3-11.2,4-17c0,0,0.1-0.2,0.1-0.2
			c0.5-0.4,1-0.9,1.4-1.3c1.7-0.7,3.4-1.5,5-2.2c4.8,3.9,16.7,0.5,18.6-5.4c1-3,1.5-8,5.5-7.1c12.2,2.9,7.6-5.5,7.9-10.7
			c1.8-1.2,3.4-2.6,3.7-5c1-0.1,2-0.2,3-0.3c4.6,2.3,9.4,4.5,12.7,8.7C980.6,559.7,979.4,562.4,978.2,565.2z"/>
		<path class="st0" d="M923.5,635.5c4.7-4.6,9.4-7.6,16.8-7c7.3,0.6,10,3.6,10.2,10.1c0.1,4.4-0.4,9,2.3,12.9
			c-0.7,3.6-1.3,7.2-2,10.8c-12.3,5-12.2,5-10.9,17.8c0.5,5.3-1.9,9.6-7.3,10.5c-4.6,0.8-8.6,0.5-11.1-5.7
			c-3.9-9.6-2.4-17.8,2.1-26.2c0.3-0.2,0.6-0.2,0.8,0c5.4,0.5,8.3-3.4,8.3-7.3c0-4.4-5.3-4.5-8.7-5.8
			C924,642.2,923.7,638.9,923.5,635.5z"/>
		<path class="st12" d="M917,608.7c-5-10.5-8.1-12.2-19.4-9.6c-10.9,2.5-28.4-2.1-35.2-14.8c-0.3-0.5-1.5-0.5-2.3-0.7
			c0-4.6,0-9.2-0.1-13.8c4.4,0.1,8.9,0.1,13.3,0.2l-0.1-0.1c0.6,0.6,1.2,1.1,1.9,1.7c1.1,0,2.3-0.1,3.4-0.1
			c-2.6,3.3-7.1,0.4-10.3,2.7c3.3,2.3,8.8-1.9,10,4.1c0.8,3.9-0.5,7.7,3.2,11.5c2.7,2.8-4.2,2.1-4.6,4.9c4.3,1.4,7.8-1.7,11.7-1.3
			c8.7,3.8,17.1,1.8,25.3-1.7C918.8,596.7,916.6,603,917,608.7z"/>
		<path class="st13" d="M785.9,607.1c-3.1-5.8-2.5-12.6-2.7-18.6c-0.4-13-5.2-24.9-6.7-37.5c-0.6-5-1.3-9.9,1.1-14.7
			c5.1,17.2,10.8,34.3,11.6,52.4c0.3,6-1.2,12.1-1.8,18.2C786.9,606.9,786.4,607,785.9,607.1z"/>
		<path class="st13" d="M782.6,627c-1.3,10.9,5.9,17.8,12,25.2c-6.5,0.3-12.5-2-18.5-4.1c-5.4-1.9-6.6-5.7-3.6-10.5
			C775.1,633.4,777.8,629.1,782.6,627z"/>
		<path class="st12" d="M912.2,583.5c1.6-0.5,3.2-1,4.9-1.4c0.6,3.4-0.7,6-3.3,7.9c-7.9,0.2-15.6,2.8-23.6,1.8
			c6.6-4.1,14.2-7.4,13.6-17.2c2.3,2.3,2.9,5.2,3.3,8.3C907.9,590.2,910.2,585.8,912.2,583.5z"/>
		<path class="st14" d="M924.2,645.6c3.4,1.4,8.8,1.5,8.7,5.8c0,3.9-2.9,7.8-8.3,7.3C924.5,654.4,924.3,650,924.2,645.6z"/>
		<path class="st15" d="M890.2,591.9c8,1,15.7-1.6,23.6-1.8c0,0.6,0.1,1.2,0.1,1.8c-8.3,3.5-16.6,5.5-25.3,1.7c0,0,0,0,0,0
			C889.1,593,889.6,592.4,890.2,591.9L890.2,591.9z"/>
		<path class="st14" d="M923.8,580.2c-0.7,5.8,2.2,12.5-4,17c-1.5-5.1-1.4-10.2-0.8-15.4C920.6,581.3,922.2,580.7,923.8,580.2z"/>
		<path class="st3" d="M802.9,657.7c-0.7,0.8-1.3,0.6-1.7-0.3C801.7,657.5,802.3,657.6,802.9,657.7z"/>
		<path class="st14" d="M789.7,571.1c-1.2-5.4-1.8-11.1-3.8-16.2c-6.7-17.4-6-34.6,0.6-51.8c0.8-2,1-4.3,1.4-6.5
			c0.8,0.7,2.3,1.3,2.3,2c1.5,16.8,6,33.4,3.7,50.5c-1,7.4-2.1,14.8-3.2,22.2c0,0,0.1,0,0.1,0C790.5,571.4,790.1,571.3,789.7,571.1z
			"/>
		<path class="st13" d="M794.6,573.2c3.1,2,4.3,5.1,4.9,8.5c-5.3,2.8-5.3,5.6,0,8.4c0,0,0,0,0,0c0.6,0.5,1.1,1.1,1.7,1.6
			c0,0,0,0,0,0c1.2,2.1,3.2,1.7,5,1.7c0,0,0,0,0,0c0,0.7,0,1.3,0,2c2.9,13.1,9,25.8,5.6,42.2c-1-11.7-1.6-21.2-6.8-29.5
			c-3.3-5.3-7-10-13.7-11c2.8-7.7,0.9-15.8,1.5-23.6C793.4,573.4,794,573.3,794.6,573.2z"/>
		<path class="st9" d="M794.6,573.2c-0.6,0.1-1.2,0.1-1.7,0.2c-0.7-0.7-1.3-1.3-2-2c1.1-7.4,2.1-14.8,3.2-22.2
			c2.3-17.1-2.2-33.7-3.7-50.5c-0.1-0.7-1.5-1.4-2.3-2c-0.3-3.1,0.9-5.5,3.4-7.3c4,23.1,9,46.2,4.1,69.8
			C794.4,563.9,794.5,568.5,794.6,573.2z"/>
		<path class="st9" d="M789.7,571.1c0.4,0.2,0.8,0.3,1.2,0.3c-0.3,0.3-0.5,0.7-0.8,1C790,572,789.8,571.5,789.7,571.1z"/>
		<path class="st14" d="M858.6,511.1c-9.7-26.4-19.3-52.8-29.5-80.4c9.6,3,17.3,1,25.3-1.9c7.6-2.7,13.7,4.2,21.2,4.7
			c2.4,0.2,0.4,4.3-0.1,6.6c-5.3,23.6-10.5,47.2-15.7,70.8C859.4,511,859,511.1,858.6,511.1z"/>
		<path class="st15" d="M861.6,512.9c5-21.1,10.5-42.1,14.8-63.3c1.8-9,4.7-16.7,12.2-22.2l0.1,0c6.5-5.4,6.9-12.8,1-18.2l0.2-0.4
			l-0.2,0.4c0.2-1.1-0.2-1.8-1.4-2l0,0c-1.2-4.9-2.4-11,2.7-13c5-2,8.4,2.7,9.4,7.9c2.1,8.9,4.8,17.7-0.8,26.5
			c-2.7,4.2-3.8,8.7,3,11c2.7,0.9,2.1,3.3,1.4,5.7c-7.9,26-23.4,47.7-39.7,68.9C862.8,516.2,861.8,515.2,861.6,512.9z"/>
		<path class="st15" d="M808.6,408.9c1.6-2.3,0.8-6.9,5.1-6.5c3.6,0.3,3.3,4.2,4.1,6.5c12.4,33,24.5,66.1,36.7,99.1
			c0.4,1,0.3,2.2,0.4,3.3c-19.8-13.7-33.9-31.9-42.1-54.5c-1.1-3.1-0.9-5.5,2.2-7c6.3-2.9,3.8-5.6,0.4-9.2c-3.5-3.7-9-6.4-8.7-12.6
			C807.1,421.6,808,415.3,808.6,408.9z"/>
		<path class="st11" d="M808.6,408.9c-0.6,6.4-1.5,12.7-1.8,19.1c-0.3,6.2,5.2,8.9,8.7,12.6c3.4,3.6,5.8,6.4-0.4,9.2
			c-3.1,1.4-3.4,3.9-2.2,7c8.3,22.7,22.3,40.8,42.1,54.5c1.2-0.1,2.4-0.2,3.6-0.2c0.4,0,0.8,0,1.2-0.2c0.6,0.7,1.2,1.4,1.8,2.1
			c0.2,2.3,1.2,3.3,2.8,1.2c16.3-21.2,31.8-42.8,39.7-68.9c0.7-2.4,1.3-4.8-1.4-5.7c-6.8-2.3-5.6-6.8-3-11
			c5.6-8.8,2.9-17.6,0.8-26.5c1.1,0,2.2,0,3.4,0c0.6,1.9,0.7,4.1,1.8,5.5c5,6.5,4.5,12.4-0.6,18.6c-2.6,3.2-2.3,6.8,1.2,9.6
			c4,3.3,4.3,7.1,3,12c-7.7,28.3-24.5,50.8-45.1,70.8c-3,2.9-4.2,5.4-4.2,9.3c0.1,14,0.1,27.9,0.1,41.9c0,4.6,0,9.2,0.1,13.8
			c0.5,20.6,0.9,41.3,1.4,61.9c-1.1,0-2.2,0-3.2,0c0-36.3-0.1-72.5-0.1-108.8c0-4.3-0.4-8.3-2-12.3c0-1,0.1-2,0.2-3.1
			c0.2-1.9,0.7-3.9-1.7-5c-18-10.3-29.2-26.8-39.2-44.3c-2.8-4.8-4.9-10-7.4-15c-2.1-4.2-3.9-8.1,2.5-10.4c2.5-0.9,3.3-3.8,0.8-5.3
			c-14.1-8.1-7.6-19.5-5.3-30.3c0.2-0.8,0.2-1.7,0.3-2.5C807.1,408.8,807.9,408.8,808.6,408.9z"/>
		<path class="st4" d="M888.6,427.4c-7.4,4.5-15,3.4-22.3-0.1c-5.3-2.6-10.3-3.9-15.5-0.3c-0.7,0.5-1.6,0.5-2.4,0.7
			c-11.7,3.2-21.9,3.1-18.9-15.2c0.3-1.8-0.2-3.8-0.4-5.7c0.3-0.4,0.5-0.9,0.6-1.3c1.2-0.1,1.6-0.8,1.5-1.9l0,0
			c2.9,0,5.8-0.1,8.6-0.1c0.4,0.3,0.8,0.5,1.2,0.5c7.7,4.2,14.7,13.2,24.5,3.9c1.1-0.6,2.2-1.1,3.4-1.7c6.5-1.4,13-2.2,19.4,0.9
			c0,0,0,0,0,0c0.5,0.7,0.9,1.3,1.4,2l0.2-0.4c0,0-0.2,0.4-0.2,0.4C891.9,415.3,890.6,421.4,888.6,427.4L888.6,427.4z M837.9,413.1
			c5.8,3.5,12,4.7,20,3.4C850.6,413.5,844.3,413.1,837.9,413.1z M861.9,416.5c6.3,0,12.4-0.9,19.6-3.8
			C873.5,411.1,867.7,413.5,861.9,416.5z M879.5,421.9c-5.8-3.4-10.8-3.5-17.3-2.4C868.2,423.2,873.3,422,879.5,421.9z M840.1,421.6
			c4.9-0.1,10.4,2.3,15.7-1.7C848.9,418.7,848.9,418.7,840.1,421.6z"/>
		<path class="st14" d="M841.2,404c-0.5-0.1-0.9-0.2-1.2-0.5c-2.9-2.4-5.8-3.1-8.6,0.1c0,0,0,0,0,0c-1.2,0.1-1.7,0.7-1.5,1.9
			c-0.1,0.5-0.4,0.9-0.6,1.3c-3,3.4-2.6,7.7-4.3,12.3c-1.7-5.2-3.5-10.4-5.1-15.6c-0.9-2.9,0.9-4.7,3.1-6.3c3.6-2.7,7-5.4,10.6-8.2
			c7.7-4.8,6.9,5.3,11.3,6.4l0-0.1c0.1,2.1,0.6,3.9,3.4,3.4c0,0,0,0,0,0c0.2,2,0.3,4,0.5,6.1C845.9,405.1,843.7,402.6,841.2,404z"/>
		<path class="st11" d="M935.4,314.6c2.9-10.7,5.8-21.3,8.7-32c-0.6,7.8-1.3,15.6-1.9,23.5c-2.4,2.4-1.3,5.5-1.6,8.4
			c-1,0.1-1.9,0.3-2.9,0.4C936.9,314.8,936.1,314.7,935.4,314.6z"/>
		<path class="st9" d="M917.2,350.1c-1.9,3.1-4.4,5.3-8.3,5.2C910.3,351.4,913.7,350.6,917.2,350.1z"/>
		<path class="st9" d="M902.1,358.6c-1,2.2-2.9,2.7-5.1,2.7C897.4,358,899.8,358.4,902.1,358.6z"/>
		<path class="st9" d="M933.8,326.5c0.1,2.8-0.9,5.1-3.1,6.8C930.3,330.4,930.8,327.8,933.8,326.5z"/>
		<path class="st9" d="M927.4,338.4c0.1,2.6-1.6,4-3.5,5.3C923.8,341,924.7,339.1,927.4,338.4z"/>
		<path class="st9" d="M930.7,333.3c-0.2,2.3-1,4.2-3.4,5.1C927.1,335.8,928.2,334.1,930.7,333.3z"/>
		<path class="st9" d="M907.1,356.8c-1.3,1.8-3,2.1-5,1.8C903.1,356.3,905.2,356.8,907.1,356.8z"/>
		<path class="st9" d="M908.8,355.2c0,1.2-0.8,1.5-1.8,1.7C907.6,356.3,908.2,355.7,908.8,355.2z"/>
		<path class="st9" d="M918.9,348.4c-0.6,0.6-1.2,1.2-1.8,1.7C917.7,349.5,918.3,349,918.9,348.4z"/>
		<path class="st5" d="M1108.7,340.1c5.9-2.3,7.6-7.3,8.2-13c0.3-2.6-0.6-5.5,1.8-7.7c4.5,6.7-1.1,12.5-1.7,18.8
			c-1.4,1.1-2.8,2.3-4.3,3.4C1110.5,343.4,1108.9,343.5,1108.7,340.1z"/>
		<path class="st12" d="M1051.3,544.6c-1.6,0-3.2,0-4.8-0.1C1048.1,542.7,1049.7,542.6,1051.3,544.6z"/>
		<path class="st12" d="M779.1,303.1c-7.9-6.2-9.2-14.6-3.2-20.4C777,289.5,778.1,296.3,779.1,303.1z"/>
		<path class="st12" d="M787.8,319.6c2.1,0.3,3.3,1.4,2.9,3.7C788.6,322.9,787.6,321.7,787.8,319.6z"/>
		<path class="st5" d="M844.8,395.4c-0.6-3.4-1.1-6.8-1.7-10.1c0.1-0.5,0.2-1,0.2-1.6c2.4-0.2,3.9-1.9,5.6-3.3
			c5.9-4.8,11.5-5.2,16.7,1.1c1.2,1.5,2.9,2.6,4.4,3.8c-4.1,7.5-8.2,15.1-12.2,22.5c-5.2-1.4-5.4-7.3-9.7-9.1c0,0,0,0,0,0
			C848.1,396.5,847.2,395.2,844.8,395.4C844.8,395.4,844.8,395.4,844.8,395.4z"/>
		<path class="st12" d="M870,385.3c-1.5-1.3-3.2-2.3-4.4-3.8c-5.2-6.3-10.8-5.9-16.7-1.1c-1.7,1.4-3.2,3.1-5.6,3.3
			c-0.7-18.7-0.7-18.7,17.1-18.6c11.1,0,11.1,0,11.3,11.9C871.3,379.8,872.8,383,870,385.3z"/>
		<path class="st9" d="M870,385.3c2.9-2.3,1.3-5.5,1.8-8.3c0.6,0,1.1-0.1,1.7-0.1c0.1,3.6,0,7.3,4,9.2c-0.4,0.4-0.7,0.9-1,1.3
			c-5.4,1.5-13.7,14.3-12.5,19.4c0,0.1,0.5,0,0.8,0c0.3,0.4,0.6,0.8,1,1.2c-9.9,9.2-16.8,0.2-24.5-3.9c2.6-1.4,4.7,1.2,7.4,0.8
			c-0.2-2.1-0.3-4.1-0.5-6.1c4.3,1.8,4.5,7.7,9.7,9.1C861.8,400.4,865.9,392.8,870,385.3z"/>
		<path class="st0" d="M939.1,801.8c-0.2,2.2-0.3,4.5-0.5,6.7c-5.5-0.1-6.2,3.8-6.4,7.9c-0.2,4.2-0.1,8.4-0.1,12.6
			c0,3-0.6,5.7-4.1,6.3c-3.3,0.5-5.5-1.2-6.3-4.2c-1.3-4.4-3-7-8.4-8.3c-5.1-1.2-4.6-7.3-4.5-12.2c0.3-16.7,1-33.5-0.5-50.2
			c-0.1-0.9-1.2-1.7-1.9-2.6c0.4-5.5,0.7-10.9,1.1-16.4c4.4,0.5,7.7-2.7,11.8-3.5c8.2-1.5,15.4-0.7,21.6,5.2c0,7.8,0,15.6-0.1,23.4
			c0.1,1.3,0.3,2.6,0.4,3.9C937,780.6,939.6,791.3,939.1,801.8z"/>
		<path class="st11" d="M950.9,662.4c0.7-3.6,1.3-7.2,2-10.8c6.4-29.4,14.2-58.4,25.3-86.4c1.2-2.7,2.4-5.5,3.6-8.2
			c5.4-10.1,10.8-20.2,16.2-30.3c4.5-8.4,11.8-14.9,15.3-23.8c2,0.6,4.1,1.1,6.1,1.7c0,1.2,0,2.4,0.1,3.6c0,1,0.1,2,0.1,3
			c-1.9,0.1-3.7,0.1-5.2,1.9c-13.3,15.1-24.5,31.5-32,50.4c-15.7,39.5-26.1,80.4-31.9,122.5c-0.6-0.7-1.3-1.4-1.9-2.1
			C949.4,676.6,950.2,669.5,950.9,662.4z"/>
		<path class="st9" d="M948.6,683.8c0.6,0.7,1.3,1.4,1.9,2.1c-1.4,25.6-7.1,50.7-6.7,76.5c0,2.2-0.6,3.9-3.1,4.2
			c0-7.8,0-15.6,0.1-23.5c2.1-18.2,4.2-36.4,6.4-54.6C947.4,686.8,948.2,685.3,948.6,683.8z"/>
		<path class="st9" d="M939.1,801.8c0.5-10.5-2.1-21.2,2.1-31.5c1.9,3.2,0.7,6.6,0.9,9.9C938.2,787,943,795,939.1,801.8z"/>
		<path class="st0" d="M908.4,721.7c0.2-1,0.3-1.9,0.5-2.9c2.4-4,0.7-8.6,1.8-12.8c5.5-0.5,9.9-3.4,13.8-6.8c3-2.6,6.1-4.5,9.8-2.7
			c4.9,2.4,2.7,8,4.3,12c1.4,3.5-1.7,5.5-4.7,6.7c-3,1.2-6,1.7-6.8,6.1c-1.5,8.3-6.3,10.3-13.7,6.8c-1.5-0.7-3-1.3-4.5-2
			C908.7,724.7,908.5,723.2,908.4,721.7z"/>
		<path class="st9" d="M908.4,721.7c0.1,1.5,0.2,3,0.4,4.5c-0.4,5-0.9,10.1-1.3,15.1c-0.3,5.5-0.7,10.9-1,16.4
			C902.7,750.9,904,727.3,908.4,721.7z"/>
		<path class="st9" d="M910.7,706.1c-1.1,4.2,0.6,8.8-1.8,12.8c-4.2-11.6,1.4-23,0.9-34.6C914,691.4,910.3,698.8,910.7,706.1z"/>
		<path class="st9" d="M870,875.6c-0.8,0.5-1.6,1-2.4,1.5C868.4,876.6,869.2,876.1,870,875.6z"/>
		<path class="st13" d="M937.2,430.6c-5.7,10.3-3.8,22.2-6.9,33c-4.6,16.4,3.6,29.8,9.2,43.9c1.1,2.8,2.9,5.4,2.8,8.7
			c-1.7,0-3.4,0-5.1,0c-4.2-8.8-6.2-18.6-11.6-26.9c2-3.7,0.4-6.9-1.6-9.9c1.2-17.2,5.6-33.8,9.7-50.4c1-0.5,2-1.1,3-1.6
			C936.9,428.4,937.1,429.5,937.2,430.6z"/>
		<path class="st9" d="M888.4,407.2c-6.3-3.1-12.8-2.3-19.4-0.9c-0.3-0.4-0.6-0.8-0.9-1.1c3.3-2.3,7.1-3,11-3.1
			c3.1-0.1,5.3-0.8,5.9-4.4c0.6-3.5-0.1-5.9-3.6-7.3c-1.8-0.7-3.4-1.9-5-2.9c0.3-0.4,0.7-0.9,1-1.3c18.5,2.3,31.6,14.5,45.5,25.2
			c-0.3,0.4-0.7,0.7-1,1.1c-6.7-2.3-11.2-8.3-18-10.2c-1.1,0-2.2,0-3.4,0c-1-5.3-4.4-9.9-9.4-7.9C886,396.1,887.3,402.3,888.4,407.2
			z"/>
		<path class="st12" d="M977.4,333.6c0.5-1.3,1-2.6,1.5-3.9c1.4,7.9,3,15.8,8.8,21.9l0,0c5.6,12,17.7,17.1,27.1,24.9
			c0,0-0.3,0.4-0.3,0.4c-1.8,0-3.5,0.1-5.3,0.1C990.2,368.7,979.9,354,977.4,333.6z"/>
		<path class="st9" d="M936.7,427.4c-1,0.5-2,1.1-3,1.6c0.3-8.6-8.4-10.7-11.8-16.7c0.3-0.4,0.6-0.8,1-1.1
			C929.3,415,935.8,418.9,936.7,427.4z"/>
		<path class="st12" d="M1031.5,381.8c-2.5,0.1-5,0.3-7.6,0.4c-2.1,0-4.2-0.3-5.9-1.6c-0.7-1.6-2.1-2-3.7-1.8c0,0-0.2,0.2-0.2,0.1
			c0.1-0.7,0.2-1.3,0.3-1.9c0,0,0.3-0.4,0.3-0.4C1020.4,378,1026.3,378.6,1031.5,381.8z"/>
		<path class="st7" d="M948.8,461c-3.1-0.5-3.2-2.8-3-5.3C947.9,456.9,949.1,458.5,948.8,461z"/>
		<path class="st9" d="M1014.4,376.9c-0.1,0.6-0.2,1.3-0.3,1.9c-1.9,0-3.7-0.3-5-1.9C1010.9,377,1012.6,376.9,1014.4,376.9z"/>
		<path class="st9" d="M1014.3,378.7c1.6-0.2,2.9,0.2,3.7,1.8C1016.6,380.4,1015,380.4,1014.3,378.7z"/>
		<path class="st11" d="M982.2,302.9c16-23.8,40.3-32.4,66.9-36.7c11.9-1.9,23.9-1.9,35.9-1.8c5.4,0.1,8.9,2.1,11.6,6.5
			c7.2,11.9,11.4,24.7,11.7,38.7c-4.7-10.3-5.9-21.9-12.6-31.5c-4.4-6.4-9.2-9.1-17.2-9.2c-30.9-0.5-58.6,8.2-83,27.2
			c-2.5,1.9-5.1,3.6-4.7,7.3C987.9,304.7,984.9,306,982.2,302.9z"/>
		<path class="st4" d="M1069.7,331.5c-0.7-10.1,7.9-16.1,18.3-12.9c4.6,1.4,8.4,4.9,14.5,4.8c-4.1,3.5-2.7,8.4-5.8,11.5
			c-0.4-9.4-1.2-10.6-7.5-11c4.3,5.4,2.9,11.3-3.2,14.3c-5.3,2.6-9.6,0.2-14.1-2.2c0,0,0.2,0.1,0.2,0.1
			C1071.4,334.5,1070.6,333,1069.7,331.5z"/>
		<path class="st4" d="M981.2,327.9c-1.1-1.8-2.4-3.5-2-5.8c3.4,2.5,5.5-0.4,8.1-1.9c9.3-5.4,18.8-2.6,22.9,6.4
			c-0.6,0.6-1.6,1.1-1.7,1.7c-0.7,6.8-4.4,10.9-11.1,10.9c-6.6,0-10.5-3.9-11.4-10.7c-0.5-3.6-2.2,0.1-3.4-0.2
			C982.1,328.1,981.7,328,981.2,327.9z"/>
		<path class="st4" d="M1099.9,311c-10.9-2.2-21.8-2.2-34.1,1.2C1074.8,301.3,1090.8,301,1099.9,311z"/>
		<path class="st4" d="M982.2,302.9c2.8,3.1,5.8,1.8,8.8,0.5c6.8,1.1,14.3,0.4,19.1,7.5c-10.9-1.6-21.7-2.7-32.2,1.1
			C979.3,309,980.7,305.9,982.2,302.9z"/>
		<path class="st7" d="M982.6,328.3c1.1,0.3,2.9-3.4,3.4,0.2c0.9,6.9,4.9,10.7,11.4,10.7c6.7,0,10.4-4.1,11.1-10.9
			c0.1-0.6,1.1-1.2,1.7-1.7c4.5,5.6,0.5,9.2-3.1,12.6c-1.7,1.6-4.1,2.6-6.1,3.8c-2.7,0-5.5,0-8.2,0.1
			C987.4,339.5,980.9,336.7,982.6,328.3z"/>
		<path class="st13" d="M1089.9,341.9c1,3.3,8.6,3,5.6,7.6c-2.6,4.1-8,4.3-12.9,2.1c-9.4-4.2,1.1-6.2,1-9.4
			C1085.7,342.1,1087.8,342,1089.9,341.9z"/>
		<path class="st7" d="M1089.9,341.9c-2.1,0.1-4.2,0.2-6.3,0.3c-4-1.8-10.8,1.4-11.6-6.3c4.4,2.4,8.8,4.8,14.1,2.2
			c6.2-3,7.6-8.9,3.2-14.3c6.3,0.4,7.1,1.6,7.5,11c0,0,0.1-0.2,0.1-0.2c-0.5,1-1,2-1.5,2.9C1093.6,339.1,1091.7,340.5,1089.9,341.9z
			"/>
		<path class="st13" d="M992.7,343.1c2.7,0,5.5,0,8.2-0.1c1,2.4,5.9,2.6,4.2,6.2c-1.6,3.2-5.5,3.5-8.7,3.7c-2.9,0.2-5.9-0.8-8.9-1.3
			c0,0,0,0,0,0C986.7,347.2,990.3,345.6,992.7,343.1z"/>
		<path class="st4" d="M1054.9,355.3c-10.3,8.6-15.9,8.9-29.6,0.9C1036.7,359.4,1045.9,359.1,1054.9,355.3z"/>
		<path class="st7" d="M1069.7,331.5c0.8,1.5,1.7,3,2.5,4.5C1068.1,336.3,1067.4,334.8,1069.7,331.5z"/>
		<path class="st4" d="M1095.4,337.7c0.5-1,1-2,1.5-2.9C1096.4,335.7,1095.9,336.7,1095.4,337.7z"/>
		<path class="st4" d="M971.7,336.5c-0.1,1.3-0.3,2.6-0.4,3.9C970.7,339.1,970.6,337.7,971.7,336.5z"/>
		<path class="st5" d="M992.7,343.1c-2.4,2.4-6.1,4.1-5.1,8.6c-5.8-6.2-7.4-14-8.8-21.9c0.8-0.6,1.6-1.2,2.3-1.8
			c0.5,0.1,1,0.2,1.4,0.4C980.9,336.7,987.4,339.5,992.7,343.1z"/>
		<path class="st15" d="M1056.5,440.6c6,2.6,12.2,4.6,18.1,7.8c6.6,3.6,9,7.4,5.8,14.4c-0.6,1.4-0.3,3.2-0.3,4.9
			c-0.6,1.6-0.2,3.9-2.8,4.2c-0.8-0.2-1.5-0.4-2.2-0.6c-4.6-2.5-10-3.3-13.6-7.6c-1.4-1.6-3.5-1.4-5,0.6c-1,0-2,0-2.9,0
			c-0.5-7.8-1.1-15.7-1.6-23.5C1053.4,440.7,1054.9,440.6,1056.5,440.6z"/>
		<path class="st14" d="M1081.7,516.2c-2.3-4.3-7-7-8.2-12c1,0,2.1-0.1,3.1-0.1c5.3,2.6,9.7,0.8,13.6-3c0.3-0.2,0.6-0.4,1-0.5
			c1.7,0.4,2.4-0.5,2.8-2c0,0,0.4-0.4,0.4-0.4c4-1.2,4.7,1.9,5.5,4.4c0.7,2.2,0.7,4.7-1.8,5.8C1092.6,511,1088.2,515.9,1081.7,516.2
			z"/>
		<path class="st15" d="M1074.2,487.4c-5,2.9-1.2,8.7-4.2,12.3c-2.7-2.4-1.4-5.6-1.8-8.5c-0.5-4,1.3-8.2-1.5-11.9
			c0.1-1.8,0.3-3.5,0.4-5.3c2.3-2.2,6,2.1,7.9-1.7c0.8-0.2,1.5-0.4,2.3-0.5c0,1.2,0.1,2.5,0.1,3.7c-0.3,0.7-0.6,1.3-0.8,2
			c-0.2,1.1-0.3,2.1-0.5,3.2c-2,0.6-3.5,1.4-1.4,3.6C1074.5,485.3,1074.4,486.4,1074.2,487.4z"/>
		<path class="st11" d="M1090.2,501.1c-3.9,3.8-8.3,5.6-13.6,3C1081.1,503.1,1085.6,502.1,1090.2,501.1z"/>
		<path class="st11" d="M1074.6,484.3c-2-2.2-0.6-3,1.4-3.6C1076.6,482.3,1076.3,483.6,1074.6,484.3z"/>
		<path class="st12" d="M1093.9,498.6c-0.3,1.5-1.1,2.4-2.8,2C1091.5,499.1,1092.1,498,1093.9,498.6z"/>
		<path class="st11" d="M1077.2,471.8c-0.8,0.2-1.5,0.4-2.3,0.5c0-0.4,0-0.8,0.1-1.1C1075.8,471.4,1076.5,471.6,1077.2,471.8
			C1077.3,471.8,1077.2,471.8,1077.2,471.8z"/>
		<path class="st11" d="M1076.5,477.5c0.3-0.7,0.6-1.3,0.8-2C1078.1,476.6,1078.1,477.4,1076.5,477.5z"/>
		<path class="st8" d="M1019.5,504.5c-2-0.6-4.1-1.1-6.2-1.7c-1.9-1.4-3.7-2.7-5.6-4.1c0-2.9,0.1-5.8,0.1-8.7c4.2-2,5.1-6.8,8.3-9.7
			c2.8-2.5,5.2-3.7,8.6-2.1c3.6-1.4,7.2-3.5,10.9-0.1c0.9,1.3,1.8,2.7,2.7,4c0.7,3.3,1.7,6.6,1,10c-4.2,1.1-0.1,5.3-2.7,7
			c-0.8,0.6-1.5,1.3-2.3,1.9C1029.8,503.9,1024,501.3,1019.5,504.5z"/>
		<path class="st9" d="M1035.6,478.1c-3.6-3.5-7.3-1.3-10.9,0.1c-1-5.4-2.7-10.9,1.4-15.9c4.3,2.3,2.9-1.5,3.5-3.2
			c0.7-0.5,1.4-0.9,2-1.4c1.7-1.2,0.7-5.3,3.7-4.6c3,0.7,2.4,3.6,1.8,6.2c-0.9,3.7,2,3,4.1,3.1c-1.9,2.8-2.1,5.2,1.9,6.3
			c0,0.9,0.1,1.8,0.1,2.7C1037.1,469.5,1037,474.5,1035.6,478.1z"/>
		<path class="st15" d="M1029.6,459.1c-0.6,1.7,0.8,5.5-3.5,3.2c-3.7-3.2-6.6-1.3-8.8,1.8c-1.6,2.3-3.5,4-6,5.1
			c-2.1-6.2-8.1-11-7-18.5c5.6,0,11.2,0,16.8,0c0,0,0,0.1,0,0.1c-0.1,5.2-6.4,1.6-7.8,5.2C1018.3,459.3,1018.3,459.3,1029.6,459.1
			L1029.6,459.1z"/>
		<path class="st14" d="M1007.8,498.7c1.9,1.4,3.7,2.7,5.6,4.1c-3.6,8.9-10.9,15.5-15.3,23.8c-5.4,10.1-10.8,20.2-16.2,30.3
			c-3.3-4.2-8.1-6.4-12.7-8.7c0.7-1.1,1.3-2.2,2-3.3c3.6-2.1,3.6-5.6,2.6-8.9c-1-3-1.3-6-1.1-9.1c10.4-6.6,21.8-11.6,30.9-20.2
			c1.8-1.7,2.7-3.3,2.3-5.7C1006.4,500.3,1007.1,499.5,1007.8,498.7z"/>
		<path class="st15" d="M971.1,544.9c-0.7,1.1-1.3,2.2-2,3.3c-1,0.1-2,0.2-3,0.3c0,0-0.4-0.3-0.4-0.3c0.6-1.1,1.2-2.2,1.8-3.3
			c0,0,0,0,0,0C968.7,544.8,969.9,544.8,971.1,544.9z"/>
		<path class="st13" d="M1066.7,479.3c2.9,3.6,1,7.9,1.5,11.9c0.4,2.9-0.9,6.1,1.8,8.5c1.3,5.6,1.9,11.5,6.6,15.7
			c2.2,2,1.5,3.9-0.8,5.4c-4.4,2.8-8.5,6.4-14.3,5.5c-1.1-1.1-2.2-2.2-3.4-3.3c-1.9-1.9-5.1-2.2-6.2-5.1
			C1058.1,505.5,1063.2,492.7,1066.7,479.3z"/>
		<path class="st10" d="M1066.7,479.3c-3.5,13.4-8.6,26.1-14.8,38.5c-2.9,1.1-5.9,2.2-4.9-3c0.7-4.1,1.5-8.2,2.3-12.2
			c1.5-9.1,6.3-16.9,10.2-25c1.4-1.5,2.9-3,4.2-4.6c2.1-2.5,2.8-1.1,3.4,1.1C1067,475.8,1066.8,477.6,1066.7,479.3z"/>
		<path class="st13" d="M1019.5,504.5c4.5-3.2,10.3-0.6,14.9-3.4c2.9,5.7,5.8,11.4,8.6,17.1c-8.1-2.7-16.2-5.3-23.5-10.1
			C1019.5,506.9,1019.5,505.7,1019.5,504.5z"/>
		<path class="st10" d="M1048.1,502.7c-2.3,1.3-3.1,0.5-3.9-1.9c-1.9-6-3.2-12.1-3.3-18.5c1.1-1.7,3.6-2.3,3.8-4.7
			c0.6,0,1.2-0.1,1.8-0.1c-0.3,2.6,0.1,5,1.8,7.1C1052.8,490.7,1046.8,496.7,1048.1,502.7z"/>
		<path class="st12" d="M1048.1,502.7c-1.2-6.1,4.8-12.1,0.2-18.2c5.4,0.8,4.4-4.6,6.7-6.8c0.5,0,1,0,1.5-0.1c1,0,2.1,0,3.1,0
			c-3.9,8.1-8.7,15.9-10.2,25C1048.9,502.7,1048.5,502.7,1048.1,502.7z"/>
		<path class="st7" d="M1044.7,477.6c-0.2,2.4-2.7,3-3.8,4.7c-0.9-0.1-1.7-0.2-2.6-0.2c-0.9-1.3-1.8-2.7-2.7-4
			c1.3-3.6,1.5-8.6,7.6-6.6C1044.5,473.4,1044.9,475.4,1044.7,477.6z"/>
		<path class="st13" d="M1036.6,499.2c2.5-1.7-1.6-6,2.7-7c0.7,3.6,1.4,7.1,2.1,10.7l0,0C1039.8,501.6,1038.2,500.4,1036.6,499.2z"
			/>
		<path class="st13" d="M1041.3,502.8c0.4,0.6,0.8,1.2,1.2,1.8C1040.7,505,1041.9,503.3,1041.3,502.8
			C1041.4,502.8,1041.3,502.8,1041.3,502.8z"/>
		<path class="st15" d="M1041.3,462.5c-2.1-0.1-5,0.7-4.1-3.1c0.6-2.6,1.2-5.5-1.8-6.2c-3-0.7-2,3.3-3.7,4.6c-0.7,0.5-1.3,0.9-2,1.4
			c0,0,0,0,0,0c-2.2-3.5,0.3-6.2,1.2-9.3c0.7-2.2,1.8-5.8-1.1-6.5c-3.2-0.8-3.7,2.8-3.5,5.2c0.5,5.9-2.2,4-5,2.3c0,0,0-0.1,0-0.1
			c0.5-3.6-1-7.8,3.4-10.1c7.8-1.7,15.6-3.2,23.5-0.3c-1.9,6.9-6.7,13.1-5.1,20.8C1042.4,461.6,1041.9,462.1,1041.3,462.5z"/>
		<path class="st10" d="M1043,461.2c-1.6-7.7,3.2-13.9,5.1-20.8c1.3-0.8,3-4.9,3.8,0.3c0.5,7.8,1.1,15.7,1.6,23.5
			c-1.5,0.7-3,2.8-4-0.7C1048.5,460,1045.7,460.4,1043,461.2z"/>
		<path class="st4" d="M936.5,260c-2.9,3.4-6.7,1.7-10.1,1.7c-8.9,0.1-17.9,0.2-26.8,0.1c-2.1,0-4.7-0.1-4.7-3.4
			c0-2.3,1.2-3.4,3.3-4.3C905.2,251,930.3,254.7,936.5,260z"/>
		<path class="st4" d="M883.3,329.3c3.2,2.4,0,3.1-1.2,3.9c-18.9,13.4-40.1,10.2-54.9-8.5c3-1.4,5,0.8,7.3,1.8
			C850.2,338.1,866.7,335.2,883.3,329.3z"/>
		<path class="st7" d="M883.3,329.3c-16.6,5.9-33.1,8.8-48.8-2.7c6.1-3.8,12.2,0.3,18.4,0.2C863,326.6,873.2,328.4,883.3,329.3z"/>
		<path class="st13" d="M801.5,306.3c4.8-0.1,10.8-0.4,10.8,6c0,5.1-4.8,7.7-10.2,7.5c-4.8-0.2-10.5-0.3-10.7-6.6
			C791.1,306.7,796.4,306.1,801.5,306.3z"/>
		<path class="st13" d="M915.6,324.9c-4.5-0.7-9.8-0.8-10-6.6c-0.2-6.4,4.9-7.1,10-7c4.8,0.1,10.9-0.5,11,5.8
			C926.7,323,920.7,324.1,915.6,324.9z"/>
		<path class="st4" d="M821.8,291.9c-10.3-4.2-18.9-4.5-27.9-0.5C800.6,279.9,811.3,279.7,821.8,291.9z"/>
		<path class="st4" d="M897.6,290.8c12.5-8,18-6.7,26.1,6.4C915,291.8,906.6,290.1,897.6,290.8z"/>
		<path class="st12" d="M942.1,306.1c0.6-7.8,1.3-15.6,1.9-23.5C953.6,291.4,952.7,301.3,942.1,306.1z"/>
		<path class="st12" d="M857.1,313c-2.1-0.3-5.2,0.5-5-2.7c0.2-3.1,3.3-2.3,5.3-2.3c2,0,5.2-0.8,5.3,2.3
			C862.8,314,859.2,312.5,857.1,313z"/>
		<path class="st12" d="M941.8,265.7c0.1,0.7,0.1,1.4,0.2,2.1C941.2,267.2,941.1,266.5,941.8,265.7z"/>
		<path class="st6" d="M807.3,189.4c23-25.6,79.7-33.7,112.1-15.6C860.6,169.4,868.1,167,807.3,189.4z"/>
		<path class="st6" d="M964.1,188.7c-4.1,9.3-15.7,15.5-25,13.4c-1.8-0.4-3.5-0.8-3.2-2.9c0.4-3.1,2.7-4.9,5.6-5.3
			C949.2,192.9,956.7,190.9,964.1,188.7L964.1,188.7z"/>
		<path class="st10" d="M870.4,188.5c-4.4-0.3-11.1,0.1-11-3.8c0-5.5,6.6-4,10.7-4.2c4.4-0.2,11.7-0.2,11.6,3.2
			C881.5,189,874.5,187.7,870.4,188.5z"/>
		<path class="st6" d="M964.1,188.7c0.1-0.2,0.1-0.4,0.3-0.6c0.1-0.1,0.3-0.1,0.4-0.1C964.6,188.2,964.3,188.5,964.1,188.7
			C964.1,188.7,964.1,188.7,964.1,188.7z"/>
		<path class="st6" d="M854.9,208.9c0.2-0.2,0.4-0.5,0.7-0.7c0,0.1,0,0.3-0.1,0.4C855.3,208.7,855.1,208.8,854.9,208.9
			C854.9,208.8,854.9,208.9,854.9,208.9z"/>
		<path class="st6" d="M854.9,208.8c-0.2,0.2-0.5,0.5-0.7,0.7c0-0.2,0-0.4,0.1-0.4C854.5,209,854.7,208.9,854.9,208.8
			C854.9,208.9,854.9,208.8,854.9,208.8z"/>
		<path class="st13" d="M856.2,524.5c1.5,3.9,2,8,2,12.3c0,36.3,0,72.5,0.1,108.8c0,1.1,0,2.3,0,3.4c0,1.7,0,3.3,0,5
			c-2.6-2.2-1.6-5.2-1.6-7.8c-0.1-9.2,0.1-18.4-0.1-27.6c-0.5-28.4-1.1-56.7-1.6-85.1C854.9,530.4,854,527.2,856.2,524.5z"/>
		<path class="st12" d="M806.3,595.4c0-0.7,0-1.3,0-2c8.9,0,17.8,0,26.9,0c-0.5,0.8-0.6,1.4-0.9,1.5c-0.8,0.2-1.6,0.2-2.5,0.3
			c-6.2,0-12.5,0.1-18.7,0.1C809.5,595.4,807.9,595.4,806.3,595.4z"/>
		<path class="st12" d="M813.3,589c5.4,0,10.8,0,16.3,0c0,0.3,0,0.5,0,0.8c-5.5,0-10.9,0-16.4,0C813.2,589.5,813.3,589.2,813.3,589z
			"/>
		<path class="st13" d="M811.1,595.4c6.2,0,12.5-0.1,18.7-0.1C823.5,597.9,817.3,597.8,811.1,595.4z"/>
		<path class="st12" d="M799.5,590.1c-5.3-2.8-5.3-5.6,0-8.4C802.6,584.5,795.1,587.4,799.5,590.1z"/>
		<path class="st11" d="M858.2,654c0-1.7,0-3.3,0-5c1.1,0,2.2,0,3.2,0C860.4,650.7,864.2,655.5,858.2,654z"/>
		<path class="st12" d="M836.7,594.2c2.3-3.1,3.7-4.9,3.9-7.1C841.1,589.5,842.5,592.2,836.7,594.2z"/>
		<path class="st12" d="M861.5,649c-1.1,0-2.2,0-3.2,0c0-1.1,0-2.3,0-3.4c1.1,0,2.2,0,3.2,0C861.5,646.7,861.5,647.9,861.5,649z"/>
		<path class="st12" d="M806.2,593.5c-1.9,0-3.9,0.4-5-1.7C803.1,591.8,805,591.6,806.2,593.5z"/>
		<path class="st13" d="M854.7,516.5c2.4,1,1.9,3,1.7,5C854.7,520.2,854.9,518.2,854.7,516.5z"/>
		<path class="st12" d="M836.9,587.7c-0.5,0.2-0.9,0.6-1.4,0.6c-0.4,0-0.8-0.4-1.2-0.7c0.4-0.2,0.9-0.6,1.3-0.6
			C836.1,587,836.5,587.4,836.9,587.7z"/>
		<path class="st12" d="M801.2,591.8c-0.6-0.5-1.1-1.1-1.7-1.6C800.1,590.7,800.6,591.2,801.2,591.8z"/>
		<path class="st13" d="M878.6,571.6c-1.1,0-2.3,0.1-3.4,0.1c-0.6-0.6-1.2-1.1-1.9-1.7c0,0,0.1,0.1,0.1,0.1
			c-2.2-3.2-5.5-6.6-2.5-10.4c2.5-3.2,6.1,0.9,9.3,0.6c1-0.1,2.1,0.8,3.1,1c11,1.9,22-5.6,25.5-15.9c2.7-8,3.2-16.8,8-24.2
			c0.8,10.4-5.1,20.1-3,30.6c-1.6,5.4-9,5.8-10.2,11.5c-1.6,0-3.1,0-4.7,0c-5.6,2.7-11.5,1.3-17.3,1.7c-2.2-0.6-4.3-1.2-6.5-1.8
			c-0.3-0.2-0.5-0.4-0.8-0.7c0.2,0.3,0.4,0.5,0.7,0.8C873.4,567.3,881.2,567.2,878.6,571.6z"/>
		<path class="st14" d="M962.4,553.4c-0.3,5.2,4.3,13.6-7.9,10.7c-4-1-4.5,4-5.5,7.1c-1.9,5.9-13.8,9.4-18.6,5.4
			c7.9-6.1,15.7-12.2,23.6-18.3C957.8,558.4,959.3,554.4,962.4,553.4z"/>
		<path class="st12" d="M955.7,519.6c5,0.6,6.6,4.3,6.1,8.3c-0.5,4-4.5,3.3-7.5,3.4c-8,0.4-15.2,2.4-21.4,8.1
			c-2.9,2.7-6.1,6-10.9,5.3c0,0,0-0.1,0-0.1c9-6.4,15.6-14.2,14.5-26.2c0-0.2,0.4-0.4,0.6-0.6l0.2,0.1c0,12.5,0,12.5,12,11.8
			c2.2-0.1,4.4,0,7,0c-2.6-3.4-6.6,0.3-9.1-3.6c3.7,0,7,0,10.2,0c0-0.5,0-0.9,0-1.4c-4.4,0-8.9,0-13.9,0
			C946.7,519.3,952.6,523.2,955.7,519.6L955.7,519.6z"/>
		<path class="st11" d="M913.8,551.8c-2.1-10.5,3.8-20.3,3-30.6c2.7-13.9,5.9-27.7,7.1-41.8c2.1,3.1,3.6,6.2,1.6,9.9
			c-1.5,9-3.3,17.9-4.5,27c-1.3,10.1-5.1,19.9-4,30.3c0,1.1,0.1,2.2,0.1,3.3C916,550.6,914.9,551.2,913.8,551.8z"/>
		<path class="st7" d="M898.9,563.3c1.6,0,3.1,0,4.7,0c5.8,5.5,6.4,13.2,8.6,20.2c-2,2.2-4.3,6.7-5.1-0.6c-0.3-3.1-1-6-3.3-8.3
			c-0.5-1-1-2-1.5-3C901.2,568.9,900,566.1,898.9,563.3z"/>
		<path class="st12" d="M937.2,516.2c1.7,0,3.4,0,5.1,0c4.8-0.3,10.2-2.8,13.4,3.4c0,0,0,0,0,0c-6-2.5-12.3-1.4-18.5-1.7
			c0,0-0.2-0.1-0.2-0.1C937,517.3,937.1,516.7,937.2,516.2z"/>
		<path class="st15" d="M962.4,553.4c-3.1,1-4.6,5-8.4,4.8c-0.3-3.7,3.3-4.5,5-6.6c2.9,0,4.4-2.5,6.7-3.5c0,0,0.4,0.3,0.4,0.3
			C965.8,550.8,964.2,552.2,962.4,553.4z"/>
		<path class="st7" d="M965.7,548.1c-2.3,1-3.8,3.5-6.7,3.5c0.6-5,4.4-6,8.4-6.8C966.9,545.9,966.3,547,965.7,548.1z"/>
		<path class="st12" d="M917.2,550c0-1.1-0.1-2.2-0.1-3.3c1.6-0.7,3.3-1.3,4.9-2c0,0,0,0.1,0,0.1C922.1,548,920.3,549.6,917.2,550z"
			/>
		<path class="st14" d="M925.4,578.8c-0.5,0.4-1,0.9-1.4,1.3C924.4,579.6,924.9,579.2,925.4,578.8z"/>
		<path class="st15" d="M924,479.4c-1.3,14.1-4.4,27.9-7.1,41.8c-4.8,7.3-5.3,16.1-8,24.2c-3.5,10.3-14.5,17.9-25.5,15.9
			c-1.1-0.2-2.1-1.1-3.1-1c-3.2,0.3-6.8-3.8-9.3-0.6c-2.9,3.7,0.4,7.2,2.5,10.4c-4.4-0.1-8.9-0.1-13.3-0.2c0-14,0-27.9-0.1-41.9
			c0-3.9,1.2-6.4,4.2-9.3c20.5-20,37.4-42.5,45.1-70.8c1.3-4.9,1.1-8.7-3-12c-3.4-2.8-3.8-6.4-1.2-9.6c5.1-6.2,5.6-12.1,0.6-18.6
			c-1.1-1.5-1.2-3.7-1.8-5.5c6.8,1.9,11.4,8,18,10.2c3.4,6,12.1,8.1,11.8,16.7C929.5,445.6,925.1,462.2,924,479.4z"/>
		<path class="st5" d="M902.3,571.7c0.5,1,1,2,1.5,3c0.5,9.8-7,13.1-13.6,17.2c0,0,0,0,0,0c-0.6,0.6-1.1,1.1-1.7,1.7c0,0,0,0,0,0
			c-3.9-0.4-7.4,2.8-11.7,1.3c0.4-2.9,7.3-2.2,4.6-4.9c-3.7-3.7-2.4-7.6-3.2-11.5c-1.2-6.1-6.7-1.9-10-4.1c3.2-2.3,7.7,0.6,10.3-2.7
			c2.6-4.4-5.2-4.3-3.6-8.3l0.1-0.1c2.2,0.6,4.3,1.2,6.5,1.8C888,568.9,897.3,563.6,902.3,571.7z"/>
		<path class="st15" d="M873.3,570c0.6,0.6,1.2,1.1,1.9,1.7C874.6,571.1,874,570.6,873.3,570z"/>
		<path class="st12" d="M888.5,593.5c0.6-0.6,1.1-1.1,1.7-1.7C889.6,592.4,889.1,593,888.5,593.5z"/>
		<path class="st9" d="M888.7,427.3c1.9-6,3.2-12,1-18.2C895.6,414.5,895.2,421.9,888.7,427.3z"/>
		<path class="st9" d="M889.8,409.1c-0.5-0.7-0.9-1.3-1.4-2C889.5,407.3,890,408,889.8,409.1z"/>
		<path class="st6" d="M837.9,413.1c6.4,0,12.7,0.3,20,3.4C849.9,417.8,843.7,416.7,837.9,413.1z"/>
		<path class="st6" d="M861.9,416.5c5.8-3,11.6-5.4,19.6-3.8C874.3,415.6,868.2,416.5,861.9,416.5z"/>
		<path class="st6" d="M879.5,421.9c-6.2,0.1-11.2,1.4-17.3-2.4C868.7,418.4,873.6,418.4,879.5,421.9z"/>
		<path class="st6" d="M840.1,421.6c8.8-2.9,8.8-2.9,15.7-1.7C850.4,423.9,845,421.5,840.1,421.6z"/>
		<path class="st9" d="M831.3,403.6c2.8-3.2,5.7-2.5,8.6-0.1C837.1,403.5,834.2,403.5,831.3,403.6z"/>
		<path class="st9" d="M869.1,406.3c-1.1,0.6-2.2,1.1-3.4,1.7c-0.3-0.4-0.7-0.8-1-1.2c1.1-0.5,2.3-1.1,3.4-1.6
			C868.5,405.5,868.8,405.9,869.1,406.3z"/>
		<path class="st9" d="M829.8,405.5c-0.2-1.2,0.3-1.8,1.5-1.9C831.4,404.7,831,405.4,829.8,405.5z"/>
		<path class="st9" d="M844.8,395.4c2.5-0.2,3.3,1.2,3.4,3.4C845.4,399.2,844.9,397.5,844.8,395.4z"/>
		<path class="st14" d="M868.2,405.2c-1.1,0.5-2.3,1.1-3.4,1.6c-0.3,0-0.8,0.1-0.8,0c-1.2-5,7.1-17.9,12.5-19.4c1.7,1,3.2,2.2,5,2.9
			c3.5,1.4,4.2,3.8,3.6,7.3c-0.6,3.7-2.8,4.3-5.9,4.4C875.3,402.2,871.5,402.8,868.2,405.2z"/>
		<path class="st14" d="M922,544.6c-1.6,0.7-3.3,1.3-4.9,2c-1-10.4,2.7-20.2,4-30.3c1.2-9,3-18,4.5-27c5.4,8.3,7.4,18.1,11.6,26.9
			c-0.1,0.5-0.2,1.1-0.2,1.6c-0.2,0.2-0.6,0.4-0.6,0.6C937.6,530.4,931,538.2,922,544.6z"/>
		<path class="st14" d="M1043,461.2c2.7-0.8,5.5-1.2,6.5,2.4c1,3.5,2.5,1.4,4,0.7c1,0,2,0,2.9,0c4.4,2.8,3.4,5.6-0.1,8.3
			c-5,0.9-7.6-6.6-13.1-3.7c-3.9-1.1-3.7-3.5-1.9-6.3C1041.9,462.1,1042.4,461.6,1043,461.2z"/>
		<path class="st13" d="M1056.3,472.5c3.5-2.7,4.5-5.5,0.1-8.3c1.4-2,3.6-2.2,5-0.6c3.7,4.3,9.1,5.1,13.6,7.6c0,0.4,0,0.8-0.1,1.1
			c-1.9,3.9-5.6-0.4-7.9,1.7c-0.6-2.2-1.3-3.6-3.4-1.1c-1.3,1.6-2.8,3.1-4.2,4.6c-1,0-2.1,0-3.1,0
			C1056.4,475.9,1056.3,474.2,1056.3,472.5z"/>
		<path class="st3" d="M1056.3,472.5c0,1.7,0.1,3.4,0.1,5.1c-0.5,0.1-1,0.1-1.5,0.1c-2.6-5.1-5.5-2.9-8.4-0.3
			c-0.6,0-1.2,0.1-1.8,0.1c0.2-2.2-0.2-4.2-1.4-6.1c0-0.9-0.1-1.8-0.1-2.7C1048.7,465.9,1051.3,473.4,1056.3,472.5z"/>
		<path class="st9" d="M1021.2,450.8c2.8,1.7,5.5,3.6,5-2.3c-0.2-2.4,0.2-6,3.5-5.2c2.9,0.7,1.8,4.3,1.1,6.5
			c-0.9,3.1-3.4,5.9-1.2,9.3c-11.3,0.1-11.3,0.1-16.2-3.2C1014.8,452.3,1021.1,455.9,1021.2,450.8z"/>
		<path class="st14" d="M1046.5,477.5c2.9-2.6,5.8-4.8,8.4,0.3c-2.3,2.2-1.3,7.7-6.7,6.8C1046.6,482.5,1046.2,480.1,1046.5,477.5z"
			/>
		<path class="st12" d="M902.3,571.7c-5-8.1-14.3-2.8-20.6-6.7c5.8-0.4,11.7,1,17.3-1.7C900,566.1,901.2,568.9,902.3,571.7z"/>
		<path class="st5" d="M875,563.3c-0.2-0.3-0.4-0.5-0.7-0.8c0.3,0.2,0.5,0.4,0.8,0.7C875.1,563.2,875,563.3,875,563.3z"/>
		<path class="st5" d="M937.2,517.9c6.2,0.2,12.5-0.8,18.5,1.7c-3.1,3.6-9-0.3-12.3,5.1c5,0,9.5,0,13.9,0c0,0.5,0,0.9,0,1.4
			c-3.2,0-6.4,0-10.2,0c2.5,3.9,6.5,0.1,9.1,3.6c-2.6,0-4.8-0.1-7,0C937.2,530.4,937.2,530.5,937.2,517.9z"/>
	</g>
</g>
</svg>
